<?xml version="1.0" encoding="UTF-8"?>
<svg id="Lager_2" data-name="Lager 2" xmlns="http://www.w3.org/2000/svg" viewBox="0 0 328.3598 122.1385">
  <defs>
    <style>
      .cls-1 {
        fill: #776952;
      }

      .cls-1, .cls-2, .cls-3, .cls-4, .cls-5, .cls-6, .cls-7, .cls-8 {
        stroke-width: 0px;
      }

      .cls-2 {
        fill: #412c3b;
      }

      .cls-3 {
        fill: #d2d0af;
      }

      .cls-4 {
        fill: #d9b18c;
      }

      .cls-5 {
        fill: #dfbf84;
      }

      .cls-6 {
        fill: #b0ac74;
      }

      .cls-7 {
        fill: #874641;
      }

      .cls-8 {
        fill: #fcfaf5;
      }
    </style>
  </defs>
  <g id="OBJECTS">
    <rect class="cls-3" x="12.0791" y="60.573" width="295.9599" height="43.0352"/>
    <path class="cls-6" d="m15.3916,94.0506c0-17.1021,13.8638-30.9658,30.9653-30.9658s30.9654,13.8637,30.9654,30.9658c0,3.3359-.5342,6.5469-1.5108,9.5576h167.3423c-.9766-3.0107-1.5103-6.2217-1.5103-9.5576,0-17.1021,13.8638-30.9658,30.9659-30.9658s30.9653,13.8637,30.9653,30.9658c0,3.3359-.5337,6.5469-1.5112,9.5576h26.2963c-2.2578-28.3853-5.8061-49.3501-22.2563-56.4463-16.4502-7.0967-59.3501-9.0322-67.0913-11.2895-6.5977-1.9239-34.4004-27.1621-42.4697-34.5757-1.398-1.2847-3.4546-1.6177-5.2334-.9859-4.3819,1.5567-16.3941,2.3614-16.0821,3.4654,1.21,4.2734,35.0782,33.3862,35.0782,33.3862l-142.2461-4.1934S29.0303,16.8421,24.1914,15.5516c-4.8384-1.2906-4.5156,2.2578-8.3862,9.0317-3.8706,6.7734,6.4511,7.7412,6.4511,7.7412,0,0-6.7739,2.2578-11.6118,8.3858C5.8057,46.8392,0,103.6082,0,103.6082h16.9018c-.9765-3.0107-1.5102-6.2217-1.5102-9.5576Z"/>
    <path class="cls-8" d="m199.2529,3.7762h0s-2.1728,11.7768,26.3736,32.3398h14.3642v-.0015c-.3657-.081-.7007-.1616-.9785-.2421-5.9888-1.7466-29.4443-22.6973-39.7593-32.0962Z"/>
    <g>
      <path class="cls-4" d="m125.3931,34.8777c1.0644.0157,1.3598-.6259.6572-1.4253l-15.5869-17.7378c-.7027-.7993-2.148-1.4536-3.2124-1.4536h-6.292c-1.064,0-1.4366.7139-.8267,1.5865l12.0547,17.268c.6099.8731,1.979,1.5996,3.0435,1.6148l10.1626.1474Z"/>
      <path class="cls-1" d="m24.1914,15.5516c-4.8384-1.2906-4.5156,2.2578-8.3862,9.0317-3.8706,6.7734,6.4511,7.7412,6.4511,7.7412,0,0,28.3999.1318,45.8028.6445,0,0-39.0288-16.1269-43.8677-17.4174Z"/>
    </g>
    <g>
      <g>
        <path class="cls-1" d="m73.5576,94.721c0,15.1382-12.2754,27.4175-27.4165,27.4175s-27.4165-12.2793-27.4165-27.4175,12.2769-27.4185,27.4165-27.4185,27.4165,12.2749,27.4165,27.4185Z"/>
        <path class="cls-8" d="m59.7764,94.721c0,7.5273-6.1055,13.6318-13.6353,13.6318s-13.6333-6.1045-13.6333-13.6318c0-7.5317,6.1035-13.6362,13.6333-13.6362s13.6353,6.1045,13.6353,13.6362Z"/>
      </g>
      <g>
        <path class="cls-1" d="m300.4736,94.721c0,15.1382-12.2754,27.4175-27.416,27.4175s-27.4165-12.2793-27.4165-27.4175,12.2769-27.4185,27.4165-27.4185,27.416,12.2749,27.416,27.4185Z"/>
        <path class="cls-8" d="m286.6929,94.721c0,7.5273-6.106,13.6318-13.6353,13.6318s-13.6333-6.1045-13.6333-13.6318c0-7.5317,6.1035-13.6362,13.6333-13.6362s13.6353,6.1045,13.6353,13.6362Z"/>
      </g>
    </g>
    <g>
      <g>
        <g>
          <path class="cls-3" d="m131.3989,103.6082c-.6133-2.0732-14.957-50.5679-14.957-56.4463,0-6.291,9.3613-12.2534,9.7495-12.479l2.3857.0703c-.0844.0498-10.1997,7.23-10.1997,12.4087,0,4.4815,9.8697,38.9771,15.044,56.4463h-2.0225Z"/>
          <g>
            <path class="cls-1" d="m141.2475,49.6658c0,4.3228-3.5039,7.8267-7.8261,7.8267s-7.8267-3.5039-7.8267-7.8267,3.5039-7.8262,7.8267-7.8262,7.8261,3.504,7.8261,7.8262Z"/>
            <path class="cls-2" d="m137.7344,52.115c5.1084,0,5.1118-2.4453,5.1118-2.4492h0c0-.0058-.0034-2.4492-5.1118-2.4492-5.1123,0-13.7383-1.0205-13.7383,2.4492h0c0,3.4697,8.626,2.4492,13.7383,2.4492Z"/>
          </g>
        </g>
        <g>
          <path class="cls-7" d="m4.5342,67.3025c14.1294,4.6582,18.0444-23.7695,12.9648-25.4629-5.0806-1.6933-8.2851,1.9942-8.2851,1.9942h0c-1.6041,4.832-3.2403,13.8608-4.6802,23.4687h.0005Z"/>
          <path class="cls-5" d="m305.2612,46.8235c-.1802.1519-3.6889,3.271,1.9717,10.6602,5.8032,7.5762,12.6675,6.895,13.7544,5.7871-3.2227-7.5483-7.8823-13.0884-14.8838-16.1089-.2676-.1157-.5615-.2266-.8423-.3384Z"/>
        </g>
      </g>
      <path class="cls-3" d="m204.4297,23.7815c2.2978,0,4.1601,3.3999,4.1601,7.5972,0,.8237-.0752,1.6138-.208,2.3574l7.8819,6.3057v5.5425l-8.5118-9.648c-.7597,1.8413-1.9619,3.0371-3.3222,3.0371-2.2949,0-4.1573-3.3989-4.1573-7.5947s1.8624-7.5972,4.1573-7.5972Z"/>
    </g>
  </g>
</svg>