<svg width="37" height="54" viewBox="0 0 37 54" fill="none" xmlns="http://www.w3.org/2000/svg">
<path d="M24.472 37.16C22.84 37.16 21.376 37.136 20.08 37.088C18.784 37.04 17.536 36.98 16.336 36.908C15.16 36.836 13.888 36.728 12.52 36.584C12.52 33.368 13.156 30.488 14.428 27.944C15.724 25.4 17.56 23.072 19.936 20.96C21.256 19.784 22.3 18.656 23.068 17.576C23.86 16.472 24.256 15.368 24.256 14.264C24.256 12.92 23.8 11.876 22.888 11.132C22 10.388 20.788 10.016 19.252 10.016C18.052 10.016 16.972 10.196 16.012 10.556C15.052 10.916 14.188 11.444 13.42 12.14C12.676 12.812 12.016 13.628 11.44 14.588C10.888 15.524 10.396 16.592 9.964 17.792L0.856 12.608C1.48 9.896 2.692 7.604 4.492 5.732C6.316 3.86 8.524 2.444 11.116 1.484C13.732 0.499996 16.492 0.00799561 19.396 0.00799561C22.54 0.00799561 25.36 0.487997 27.856 1.448C30.376 2.384 32.368 3.812 33.832 5.732C35.296 7.628 36.028 10.016 36.028 12.896C36.028 15.032 35.752 16.844 35.2 18.332C34.648 19.796 33.916 21.056 33.004 22.112C32.116 23.168 31.156 24.152 30.124 25.064C29.188 25.904 28.288 26.912 27.424 28.088C26.584 29.264 25.888 30.608 25.336 32.12C24.808 33.608 24.52 35.288 24.472 37.16ZM19.288 53.36C17.296 53.36 15.556 52.796 14.068 51.668C12.604 50.516 11.872 48.908 11.872 46.844C11.872 45.716 12.208 44.66 12.88 43.676C13.552 42.668 14.44 41.864 15.544 41.264C16.648 40.64 17.812 40.328 19.036 40.328C21.22 40.328 23.032 40.892 24.472 42.02C25.936 43.124 26.668 44.588 26.668 46.412C26.668 47.708 26.32 48.884 25.624 49.94C24.952 50.996 24.052 51.836 22.924 52.46C21.82 53.06 20.608 53.36 19.288 53.36Z" fill="#82637F"/>
</svg>
