<?xml version="1.0" encoding="utf-8"?>
<!-- Generator: Adobe Illustrator 27.5.0, SVG Export Plug-In . SVG Version: 6.00 Build 0)  -->
<svg version="1.1" id="Layer_1" xmlns="http://www.w3.org/2000/svg" xmlns:xlink="http://www.w3.org/1999/xlink" x="0px" y="0px"
	 viewBox="0 0 325.609 212.242" style="enable-background:new 0 0 325.609 212.242;" xml:space="preserve">
<g>
	<g>
		<g>
			<rect x="183.939" y="8.47" style="fill:#3C3F41;" width="2.824" height="28.469"/>
			<path style="fill:#231F20;" d="M186.763,37.064h-2.824c-0.069,0-0.125-0.056-0.125-0.125V8.47c0-0.069,0.056-0.125,0.125-0.125
				h2.824c0.069,0,0.126,0.056,0.126,0.125v28.469C186.889,37.008,186.832,37.064,186.763,37.064z M184.064,36.814h2.574V8.596
				h-2.574V36.814z"/>
		</g>
		<rect x="185.351" y="8.47" style="fill:#3C3F41;" width="1.412" height="28.469"/>
		<g>
			<g>
				<g>
					<path style="fill:#3C3F41;" d="M187.651,40.84c-0.296-1.185,1.259-2.666,2.37-3.407c1.111-0.741-3.555-2.074-3.555-2.074
						h-2.063c0,0-4.666,1.333-3.555,2.074c1.111,0.741,2.666,2.222,2.37,3.407c-0.296,1.185-3.629,1.648-3.407,3.935h3.396h4.454
						h3.396C191.28,42.487,187.947,42.025,187.651,40.84z"/>
					<path style="fill:#231F20;" d="M191.058,44.9h-11.247c-0.065,0-0.118-0.049-0.125-0.113c-0.143-1.469,1.11-2.229,2.116-2.84
						c0.612-0.371,1.19-0.722,1.294-1.137c0.293-1.171-1.388-2.652-2.318-3.272c-0.215-0.143-0.24-0.305-0.223-0.415
						c0.124-0.791,3.198-1.708,3.813-1.884c0.011-0.003,0.023-0.005,0.035-0.005h2.063c0.012,0,0.023,0.002,0.035,0.005
						c0.615,0.176,3.689,1.092,3.813,1.884c0.017,0.11-0.008,0.272-0.223,0.415c-0.93,0.62-2.611,2.101-2.318,3.272
						c0.103,0.414,0.682,0.765,1.294,1.137c1.007,0.611,2.259,1.371,2.117,2.84C191.176,44.851,191.122,44.9,191.058,44.9z
						 M179.927,44.649h11.013c0.054-1.239-1.038-1.902-2.005-2.488c-0.686-0.417-1.279-0.776-1.407-1.291
						c-0.326-1.304,1.369-2.84,2.422-3.542c0.127-0.085,0.117-0.147,0.114-0.168c-0.076-0.488-2.252-1.285-3.617-1.676h-2.028
						c-1.365,0.391-3.54,1.188-3.617,1.676c-0.003,0.021-0.013,0.083,0.114,0.168c1.053,0.702,2.748,2.238,2.422,3.542
						c-0.129,0.515-0.721,0.874-1.407,1.291C180.965,42.747,179.874,43.41,179.927,44.649z"/>
				</g>
				<path style="fill:#3C3F41;" d="M187.651,40.84c-0.296-1.185,1.259-2.666,2.37-3.407c1.111-0.741-3.555-2.074-3.555-2.074h-2.063
					c0,0-0.498,0.142-1.129,0.359c0.089-0.019,0.178-0.04,0.267-0.057c1.004-0.191,2.314-0.262,3.079,0.558
					c0.931,0.998-0.535,2.049-1.006,2.854c-0.409,0.698-0.542,1.524-0.203,2.277c0.307,0.682,0.887,1.148,1.369,1.699
					c0.423,0.484,0.72,1.082,0.767,1.726h3.511C191.28,42.487,187.947,42.025,187.651,40.84z"/>
			</g>
			<g>
				<path style="fill:#3C3F41;" d="M185.53,43.621c-4.549,0-8.237,0.282-8.237,0.63v14.372v3.621v48.662
					c0,0.348,3.688,0.63,8.237,0.63c4.549,0,8.238-0.282,8.238-0.63V62.244v-4.61V44.251
					C193.767,43.903,190.079,43.621,185.53,43.621z"/>
				<path style="fill:#231F20;" d="M185.53,111.661c-2.204,0-4.276-0.066-5.834-0.185c-2.529-0.193-2.529-0.429-2.529-0.57V44.251
					c0-0.141,0-0.377,2.529-0.57c1.559-0.119,3.631-0.185,5.834-0.185c2.203,0,4.275,0.066,5.834,0.185
					c2.528,0.193,2.528,0.429,2.528,0.57v66.655c0,0.141,0,0.377-2.528,0.57C189.805,111.595,187.733,111.661,185.53,111.661z
					 M177.418,110.877c0.299,0.227,3.227,0.533,8.112,0.533c4.885,0,7.813-0.306,8.112-0.533V44.28
					c-0.299-0.227-3.227-0.533-8.112-0.533c-4.885,0-7.813,0.306-8.112,0.533V110.877z M193.654,44.291h0.003H193.654z"/>
			</g>
			<path style="fill:#3C3F41;" d="M183.382,43.663c-0.571,0.009-1.127,0.019-1.664,0.03v67.771c0.537,0.011,1.093,0.021,1.664,0.03
				V43.663z"/>
			<path style="fill:#3C3F41;" d="M179.913,43.784c-1.668,0.115-2.716,0.282-2.716,0.467v66.655c0,0.185,1.048,0.352,2.716,0.467
				V43.784z"/>
			<path style="fill:#3C3F41;" d="M188.654,43.671v67.814c2.949-0.096,5.017-0.319,5.017-0.58V44.251
				C193.671,43.991,191.603,43.767,188.654,43.671z"/>
			<g>
				<g>
					<path style="fill:#3C3F41;" d="M194.403,48.109h-17.276c-0.651,0-1.184-0.533-1.184-1.184l0,0c0-0.652,0.533-1.184,1.184-1.184
						h17.276c0.652,0,1.185,0.533,1.185,1.184l0,0C195.588,47.576,195.055,48.109,194.403,48.109z"/>
					<path style="fill:#231F20;" d="M194.403,48.235h-17.276c-0.722,0-1.31-0.588-1.31-1.31c0-0.722,0.588-1.31,1.31-1.31h17.276
						c0.722,0,1.31,0.588,1.31,1.31C195.713,47.647,195.126,48.235,194.403,48.235z M177.127,45.865
						c-0.584,0-1.059,0.475-1.059,1.059c0,0.584,0.475,1.059,1.059,1.059h17.276c0.584,0,1.059-0.475,1.059-1.059
						c0-0.584-0.475-1.059-1.059-1.059H177.127z"/>
				</g>
				<g>
					<path style="fill:#FFFFFF;" d="M178.805,46.924c0,0.267-0.216,0.483-0.483,0.483s-0.483-0.216-0.483-0.483
						c0-0.267,0.216-0.483,0.483-0.483S178.805,46.658,178.805,46.924z"/>
					<path style="fill:#FFFFFF;" d="M183.699,46.924c0,0.267-0.216,0.483-0.483,0.483c-0.267,0-0.483-0.216-0.483-0.483
						c0-0.267,0.216-0.483,0.483-0.483C183.482,46.441,183.699,46.658,183.699,46.924z"/>
					<path style="fill:#FFFFFF;" d="M193.485,46.924c0,0.267-0.216,0.483-0.483,0.483c-0.267,0-0.483-0.216-0.483-0.483
						c0-0.267,0.216-0.483,0.483-0.483C193.269,46.441,193.485,46.658,193.485,46.924z"/>
					<path style="fill:#FFFFFF;" d="M188.592,46.924c0,0.267-0.217,0.483-0.484,0.483c-0.267,0-0.483-0.216-0.483-0.483
						c0-0.267,0.216-0.483,0.483-0.483C188.376,46.441,188.592,46.658,188.592,46.924z"/>
				</g>
			</g>
			<g>
				<g>
					<path style="fill:#3C3F41;" d="M194.403,51.745h-17.276c-0.651,0-1.184-0.533-1.184-1.184l0,0c0-0.652,0.533-1.185,1.184-1.185
						h17.276c0.652,0,1.185,0.533,1.185,1.185l0,0C195.588,51.212,195.055,51.745,194.403,51.745z"/>
					<path style="fill:#231F20;" d="M194.403,51.871h-17.276c-0.722,0-1.31-0.588-1.31-1.31c0-0.722,0.588-1.31,1.31-1.31h17.276
						c0.722,0,1.31,0.588,1.31,1.31C195.713,51.283,195.126,51.871,194.403,51.871z M177.127,49.502
						c-0.584,0-1.059,0.475-1.059,1.059c0,0.584,0.475,1.059,1.059,1.059h17.276c0.584,0,1.059-0.475,1.059-1.059
						c0-0.584-0.475-1.059-1.059-1.059H177.127z"/>
				</g>
				<g>
					<circle style="fill:#FFFFFF;" cx="178.322" cy="50.561" r="0.483"/>
					<circle style="fill:#FFFFFF;" cx="183.215" cy="50.561" r="0.483"/>
					<circle style="fill:#FFFFFF;" cx="193.002" cy="50.561" r="0.483"/>
					<path style="fill:#FFFFFF;" d="M188.592,50.561c0,0.267-0.217,0.483-0.484,0.483c-0.267,0-0.483-0.216-0.483-0.483
						c0-0.267,0.216-0.483,0.483-0.483C188.376,50.078,188.592,50.294,188.592,50.561z"/>
				</g>
			</g>
		</g>
		<g>
			<path style="fill:#3C3F41;" d="M189.169,7.044c0,2.063-1.672,3.735-3.735,3.735c-2.063,0-3.735-1.672-3.735-3.735
				c0-2.063,1.672-3.735,3.735-3.735C187.497,3.309,189.169,4.981,189.169,7.044z"/>
			<path style="fill:#231F20;" d="M185.434,10.904c-2.129,0-3.86-1.732-3.86-3.86s1.732-3.86,3.86-3.86s3.86,1.732,3.86,3.86
				S187.563,10.904,185.434,10.904z M185.434,3.434c-1.99,0-3.609,1.619-3.609,3.609c0,1.99,1.619,3.609,3.609,3.609
				c1.99,0,3.609-1.619,3.609-3.609C189.044,5.054,187.424,3.434,185.434,3.434z"/>
		</g>
		<path style="fill:#3C3F41;" d="M185.434,3.309c-2.063,0-3.735,1.672-3.735,3.735c0,2.063,1.672,3.735,3.735,3.735
			c2.063,0,3.735-1.672,3.735-3.735C189.169,4.981,187.497,3.309,185.434,3.309z M184.558,8.149c-0.965,0-1.747-0.782-1.747-1.748
			c0-0.965,0.782-1.747,1.747-1.747c0.965,0,1.747,0.782,1.747,1.747C186.306,7.366,185.523,8.149,184.558,8.149z"/>
	</g>
	<g>
		<g>
			<g>
				<path style="fill:#3C3F41;" d="M166.57,67.928c0,3.007-2.437,5.444-5.444,5.444c-3.006,0-5.444-2.437-5.444-5.444
					c0-3.007,2.437-5.444,5.444-5.444C164.133,62.484,166.57,64.922,166.57,67.928z"/>
				<path style="fill:#231F20;" d="M161.127,73.497c-3.071,0-5.569-2.498-5.569-5.569c0-3.071,2.498-5.569,5.569-5.569
					c3.071,0,5.569,2.498,5.569,5.569C166.696,70.999,164.198,73.497,161.127,73.497z M161.127,62.61
					c-2.932,0-5.318,2.386-5.318,5.318c0,2.932,2.386,5.318,5.318,5.318c2.932,0,5.318-2.386,5.318-5.318
					C166.445,64.996,164.059,62.61,161.127,62.61z"/>
			</g>
			<path style="fill:#3C3F41;" d="M161.127,62.484c-3.006,0-5.444,2.437-5.444,5.444c0,3.007,2.437,5.444,5.444,5.444
				c3.007,0,5.444-2.437,5.444-5.444C166.57,64.922,164.133,62.484,161.127,62.484z M159.85,69.538c-1.407,0-2.547-1.14-2.547-2.547
				s1.14-2.547,2.547-2.547c1.407,0,2.547,1.14,2.547,2.547S161.257,69.538,159.85,69.538z"/>
			<g>
				<path style="fill:#3C3F41;" d="M163.343,77.536c-0.296-1.185,1.259-2.666,2.37-3.407c1.111-0.741-3.555-2.074-3.555-2.074
					h-2.063c0,0-4.666,1.333-3.555,2.074c1.111,0.741,2.666,2.222,2.37,3.407c-0.296,1.185-3.629,1.648-3.407,3.935h3.396h4.454
					h3.396C166.973,79.184,163.64,78.721,163.343,77.536z"/>
				<path style="fill:#231F20;" d="M166.75,81.596h-11.247c-0.065,0-0.119-0.049-0.125-0.113c-0.143-1.47,1.11-2.23,2.117-2.841
					c0.612-0.371,1.19-0.722,1.294-1.136c0.293-1.171-1.388-2.652-2.318-3.272c-0.215-0.143-0.24-0.305-0.222-0.415
					c0.124-0.791,3.197-1.708,3.813-1.883c0.011-0.003,0.023-0.005,0.035-0.005h2.063c0.012,0,0.023,0.002,0.035,0.005
					c0.615,0.176,3.689,1.092,3.813,1.883c0.017,0.11-0.007,0.272-0.222,0.415c-0.93,0.62-2.611,2.101-2.318,3.272
					c0.103,0.414,0.682,0.765,1.294,1.136c1.007,0.611,2.259,1.371,2.117,2.841C166.869,81.547,166.815,81.596,166.75,81.596z
					 M155.62,81.345h11.014c0.054-1.239-1.038-1.902-2.005-2.489c-0.686-0.416-1.278-0.776-1.407-1.29l0,0
					c-0.326-1.304,1.369-2.84,2.422-3.542c0.127-0.085,0.117-0.147,0.114-0.168c-0.076-0.488-2.252-1.285-3.617-1.676h-2.028
					c-1.365,0.391-3.541,1.188-3.617,1.676c-0.003,0.021-0.013,0.083,0.114,0.168c1.053,0.702,2.748,2.238,2.422,3.542
					c-0.129,0.514-0.721,0.874-1.407,1.29C156.658,79.444,155.566,80.106,155.62,81.345z"/>
			</g>
			<path style="fill:#3C3F41;" d="M163.343,77.536c-0.296-1.185,1.259-2.666,2.37-3.407c1.111-0.741-3.555-2.074-3.555-2.074h-2.063
				c0,0-0.498,0.143-1.129,0.36c0.089-0.02,0.178-0.04,0.267-0.057c1.004-0.191,2.314-0.263,3.079,0.558
				c0.931,0.998-0.535,2.049-1.006,2.854c-0.409,0.698-0.542,1.524-0.203,2.277c0.307,0.682,0.887,1.148,1.369,1.699
				c0.423,0.484,0.72,1.082,0.767,1.726h3.511C166.973,79.184,163.64,78.721,163.343,77.536z"/>
		</g>
		<g>
			<path style="fill:#3C3F41;" d="M161.127,80.318c-4.549,0-8.237,0.282-8.237,0.63v3.588v20.797v3.588
				c0,0.348,3.688,0.63,8.237,0.63c4.549,0,8.237-0.282,8.237-0.63v-3.588V84.535v-3.588
				C169.364,80.6,165.676,80.318,161.127,80.318z"/>
			<path style="fill:#231F20;" d="M161.127,109.676c-2.203,0-4.275-0.066-5.834-0.185c-2.528-0.193-2.528-0.429-2.528-0.571V80.947
				c0-0.141,0-0.377,2.528-0.57c1.559-0.119,3.631-0.185,5.834-0.185c2.204,0,4.275,0.066,5.834,0.185
				c2.529,0.193,2.529,0.429,2.529,0.57v27.973c0,0.141,0,0.377-2.529,0.571C165.402,109.61,163.33,109.676,161.127,109.676z
				 M153.015,108.891c0.299,0.227,3.227,0.533,8.112,0.533c4.885,0,7.813-0.306,8.112-0.533V80.976
				c-0.299-0.227-3.227-0.533-8.112-0.533c-4.885,0-7.813,0.306-8.112,0.533V108.891z M169.251,80.988h0.003H169.251z"/>
		</g>
		<path style="fill:#3C3F41;" d="M158.561,109.518V80.35c-1.073,0.027-2.051,0.07-2.879,0.125c0.013,0.019,0.023,0.04,0.023,0.069
			v28.85C156.528,109.449,157.498,109.492,158.561,109.518z"/>
		<path style="fill:#3C3F41;" d="M153.785,80.662c-0.571,0.086-0.896,0.183-0.896,0.285v27.973c0,0.103,0.324,0.2,0.896,0.285
			V80.662z"/>
		<path style="fill:#3C3F41;" d="M162.804,80.331v29.206c3.745-0.059,6.56-0.313,6.56-0.617V80.947
			C169.364,80.644,166.549,80.39,162.804,80.331z"/>
		<g>
			<g>
				<path style="fill:#8D271A;" d="M170.096,88.82H152.82c-0.651,0-1.184-0.533-1.184-1.185l0,0c0-0.651,0.533-1.184,1.184-1.184
					h17.276c0.651,0,1.184,0.533,1.184,1.184l0,0C171.28,88.287,170.747,88.82,170.096,88.82z"/>
				<path style="fill:#45231C;" d="M170.096,88.946H152.82c-0.722,0-1.31-0.588-1.31-1.31c0-0.722,0.588-1.31,1.31-1.31h17.276
					c0.722,0,1.31,0.588,1.31,1.31C171.406,88.358,170.818,88.946,170.096,88.946z M152.82,86.577c-0.584,0-1.059,0.475-1.059,1.059
					c0,0.584,0.475,1.059,1.059,1.059h17.276c0.584,0,1.059-0.475,1.059-1.059c0-0.584-0.475-1.059-1.059-1.059H152.82z"/>
			</g>
			<g>
				<circle style="fill:#FFFFFF;" cx="154.015" cy="87.636" r="0.483"/>
				<circle style="fill:#FFFFFF;" cx="158.908" cy="87.636" r="0.483"/>
				<circle style="fill:#FFFFFF;" cx="168.695" cy="87.636" r="0.483"/>
				<circle style="fill:#FFFFFF;" cx="163.801" cy="87.636" r="0.483"/>
			</g>
		</g>
		<g>
			<g>
				<path style="fill:#8D271A;" d="M170.096,103.387H152.82c-0.651,0-1.184-0.533-1.184-1.184l0,0c0-0.651,0.533-1.185,1.184-1.185
					h17.276c0.651,0,1.184,0.533,1.184,1.185l0,0C171.28,102.854,170.747,103.387,170.096,103.387z"/>
				<path style="fill:#45231C;" d="M170.096,103.513H152.82c-0.722,0-1.31-0.588-1.31-1.31c0-0.722,0.588-1.31,1.31-1.31h17.276
					c0.722,0,1.31,0.587,1.31,1.31C171.406,102.925,170.818,103.513,170.096,103.513z M152.82,101.144
					c-0.584,0-1.059,0.475-1.059,1.059c0,0.584,0.475,1.059,1.059,1.059h17.276c0.584,0,1.059-0.475,1.059-1.059
					c0-0.584-0.475-1.059-1.059-1.059H152.82z"/>
			</g>
			<g>
				<path style="fill:#FFFFFF;" d="M154.498,102.203c0,0.267-0.216,0.483-0.483,0.483s-0.483-0.216-0.483-0.483
					c0-0.267,0.216-0.483,0.483-0.483S154.498,101.936,154.498,102.203z"/>
				<path style="fill:#FFFFFF;" d="M159.391,102.203c0,0.267-0.216,0.483-0.483,0.483c-0.267,0-0.483-0.216-0.483-0.483
					c0-0.267,0.216-0.483,0.483-0.483C159.175,101.72,159.391,101.936,159.391,102.203z"/>
				<path style="fill:#FFFFFF;" d="M169.178,102.203c0,0.267-0.216,0.483-0.483,0.483s-0.483-0.216-0.483-0.483
					c0-0.267,0.216-0.483,0.483-0.483S169.178,101.936,169.178,102.203z"/>
				<path style="fill:#FFFFFF;" d="M164.285,102.203c0,0.267-0.216,0.483-0.483,0.483c-0.267,0-0.483-0.216-0.483-0.483
					c0-0.267,0.216-0.483,0.483-0.483C164.068,101.72,164.285,101.936,164.285,102.203z"/>
			</g>
		</g>
	</g>
	<rect x="64.831" y="178.354" style="fill:#3C3F41;" width="233.941" height="10.519"/>
	<g>
		<rect x="64.831" y="178.354" style="fill:#3C3F41;" width="233.941" height="6.673"/>
		<path style="fill:#231F20;" d="M298.772,185.152H64.831c-0.069,0-0.125-0.056-0.125-0.125v-6.673c0-0.069,0.056-0.126,0.125-0.126
			h233.941c0.069,0,0.125,0.056,0.125,0.126v6.673C298.897,185.096,298.841,185.152,298.772,185.152z M64.956,184.901h233.69v-6.422
			H64.956V184.901z"/>
	</g>
	<g>
		<polygon style="fill:#3C3F41;" points="300.762,164.008 49.334,164.008 41.713,181.406 300.762,181.406 		"/>
		<path style="fill:#231F20;" d="M300.762,181.531H41.713c-0.042,0-0.082-0.021-0.105-0.057c-0.023-0.035-0.027-0.08-0.01-0.119
			l7.622-17.398c0.02-0.046,0.065-0.075,0.115-0.075h251.427c0.069,0,0.125,0.056,0.125,0.125v17.398
			C300.887,181.475,300.831,181.531,300.762,181.531z M41.905,181.281h258.732v-17.147H49.417L41.905,181.281z"/>
	</g>
	<g>
		<polygon style="fill:#E53626;" points="300.762,177.786 43.299,177.786 41.713,181.406 300.762,181.406 		"/>
		<path style="fill:#530E00;" d="M300.887,181.531H41.521l1.696-3.871h257.67V181.531z M41.905,181.281h258.732v-3.37H43.381
			L41.905,181.281z"/>
	</g>
	<polygon style="fill:#3C3F41;" points="300.762,164.008 49.334,164.008 44.868,174.205 300.762,174.205 	"/>
	<g>
		<path style="fill:#006872;" d="M254.803,107.998H148.228v63.223h106.575c6.115,0,11.071-14.153,11.071-31.611
			S260.918,107.998,254.803,107.998z"/>
		<path style="fill:#003A41;" d="M254.803,171.347h-106.7v-63.474h106.7c6.174,0,11.197,14.237,11.197,31.737
			C266,157.109,260.977,171.347,254.803,171.347z M148.354,171.096h106.449c6.035,0,10.946-14.124,10.946-31.486
			c0-17.362-4.91-31.486-10.946-31.486H148.354V171.096z"/>
	</g>
	<g>
		<path style="fill:#006872;" d="M254.803,107.998h-63.504v63.223h63.504c6.115,0,11.071-14.153,11.071-31.611
			S260.918,107.998,254.803,107.998z"/>
		<path style="fill:#006872;" d="M254.803,171.347h-63.63v-63.474h63.63c6.174,0,11.197,14.237,11.197,31.737
			C266,157.109,260.977,171.347,254.803,171.347z M191.424,171.096h63.379c6.035,0,10.946-14.124,10.946-31.486
			c0-17.362-4.91-31.486-10.946-31.486h-63.379V171.096z"/>
	</g>
	<path style="opacity:0.36;fill:#3C3F41;" d="M265.671,133.583c-0.147-2.167-0.368-4.257-0.661-6.242H148.228v6.242H265.671z"/>
	<path style="opacity:0.46;fill:#66696B;" d="M263.074,118.599c-2.028-6.503-4.982-10.601-8.271-10.601H148.228v10.601H263.074z"/>
	<path style="opacity:0.46;fill:#66696B;" d="M148.228,154.561v16.66h106.575c4.22,0,7.886-6.744,9.754-16.66H148.228z"/>
	<g>
		<polygon style="fill:#E53626;" points="138.946,112.263 148.228,107.998 148.228,171.221 138.946,166.705 		"/>
		<path style="fill:#530E00;" d="M148.354,171.422l-9.534-4.638v-54.601l9.534-4.38V171.422z M139.071,166.627l9.032,4.394v-62.827
			l-9.032,4.15V166.627z"/>
	</g>
	<polygon style="fill:#3C3F41;" points="141.968,110.875 138.946,112.263 138.946,166.705 141.968,168.176 	"/>
	<path style="opacity:0.46;fill:#66696B;" d="M139.916,122.315c0.457-0.223,0.893-0.47,1.333-0.726
		c0.817-0.475,1.64-0.94,2.468-1.396c1.491-0.822,2.998-1.615,4.511-2.395v-9.8l-9.283,4.265v10.515
		C139.27,122.625,139.594,122.473,139.916,122.315z"/>
	<path style="opacity:0.46;fill:#66696B;" d="M143.529,152.444c-1.53-0.926-3.057-1.859-4.583-2.792v17.054l9.283,4.516v-15.97
		C146.656,154.324,145.09,153.389,143.529,152.444z"/>
	<g>
		<g>
			<g>
				
					<ellipse transform="matrix(0.9239 -0.3827 0.3827 0.9239 -68.0934 46.7429)" style="fill:#66696B;" cx="83.449" cy="194.536" rx="14.397" ry="14.397"/>
				<path style="fill:#3B3637;" d="M83.449,209.058c-8.008,0-14.523-6.515-14.523-14.523c0-8.008,6.515-14.523,14.523-14.523
					c8.008,0,14.523,6.515,14.523,14.523C97.972,202.544,91.457,209.058,83.449,209.058z M83.449,180.264
					c-7.869,0-14.272,6.402-14.272,14.272c0,7.87,6.403,14.272,14.272,14.272s14.272-6.402,14.272-14.272
					C97.721,186.666,91.319,180.264,83.449,180.264z"/>
			</g>
			<g>
				
					<ellipse transform="matrix(0.9239 -0.3827 0.3827 0.9239 -68.0934 46.7429)" style="fill:#0085C7;" cx="83.449" cy="194.536" rx="14.397" ry="14.397"/>
				<path style="fill:#006872;" d="M83.449,209.058c-8.008,0-14.523-6.515-14.523-14.523c0-8.008,6.515-14.523,14.523-14.523
					c8.008,0,14.523,6.515,14.523,14.523C97.972,202.544,91.457,209.058,83.449,209.058z M83.449,180.264
					c-7.869,0-14.272,6.402-14.272,14.272c0,7.87,6.403,14.272,14.272,14.272s14.272-6.402,14.272-14.272
					C97.721,186.666,91.319,180.264,83.449,180.264z"/>
			</g>
			<circle style="fill:#66696B;" cx="83.449" cy="194.536" r="12.285"/>
			<circle style="fill:#433939;" cx="83.449" cy="194.536" r="11.512"/>
			<g>
				
					<ellipse transform="matrix(0.1602 -0.9871 0.9871 0.1602 -121.9414 245.7462)" style="fill:#E53626;" cx="83.449" cy="194.536" rx="10.28" ry="10.28"/>
				<path style="fill:#530E00;" d="M83.449,204.941c-5.738,0-10.405-4.668-10.405-10.405c0-5.738,4.668-10.405,10.405-10.405
					c5.737,0,10.405,4.668,10.405,10.405C93.855,200.273,89.187,204.941,83.449,204.941z M83.449,184.381
					c-5.599,0-10.154,4.555-10.154,10.154c0,5.599,4.555,10.154,10.154,10.154s10.154-4.555,10.154-10.154
					C93.604,188.936,89.049,184.381,83.449,184.381z"/>
			</g>
			<circle style="fill:#66696B;" cx="83.449" cy="194.536" r="7.069"/>
			<circle style="fill:#433939;" cx="83.449" cy="194.536" r="3.216"/>
		</g>
		<g>
			<g>
				
					<ellipse transform="matrix(0.2298 -0.9732 0.9732 0.2298 -99.9617 262.764)" style="fill:#66696B;" cx="116.028" cy="194.536" rx="14.397" ry="14.397"/>
				<path style="fill:#3B3637;" d="M116.028,209.058c-8.008,0-14.523-6.515-14.523-14.523c0-8.008,6.515-14.523,14.523-14.523
					c8.008,0,14.523,6.515,14.523,14.523C130.55,202.544,124.035,209.058,116.028,209.058z M116.028,180.264
					c-7.87,0-14.272,6.402-14.272,14.272c0,7.87,6.402,14.272,14.272,14.272s14.272-6.402,14.272-14.272
					C130.299,186.666,123.897,180.264,116.028,180.264z"/>
			</g>
			<g>
				
					<ellipse transform="matrix(0.2298 -0.9732 0.9732 0.2298 -99.9617 262.764)" style="fill:#0085C7;" cx="116.028" cy="194.536" rx="14.397" ry="14.397"/>
				<path style="fill:#006872;" d="M116.028,209.058c-8.008,0-14.523-6.515-14.523-14.523c0-8.008,6.515-14.523,14.523-14.523
					c8.008,0,14.523,6.515,14.523,14.523C130.55,202.544,124.035,209.058,116.028,209.058z M116.028,180.264
					c-7.87,0-14.272,6.402-14.272,14.272c0,7.87,6.402,14.272,14.272,14.272s14.272-6.402,14.272-14.272
					C130.299,186.666,123.897,180.264,116.028,180.264z"/>
			</g>
			<circle style="fill:#66696B;" cx="116.028" cy="194.536" r="12.285"/>
			<circle style="fill:#433939;" cx="116.028" cy="194.536" r="11.512"/>
			<g>
				
					<ellipse transform="matrix(0.2298 -0.9732 0.9732 0.2298 -99.9617 262.764)" style="fill:#E53626;" cx="116.028" cy="194.536" rx="10.28" ry="10.28"/>
				<path style="fill:#530E00;" d="M116.028,204.941c-5.738,0-10.406-4.668-10.406-10.405c0-5.738,4.668-10.405,10.406-10.405
					c5.737,0,10.405,4.668,10.405,10.405C126.433,200.273,121.765,204.941,116.028,204.941z M116.028,184.381
					c-5.599,0-10.155,4.555-10.155,10.154c0,5.599,4.555,10.154,10.155,10.154c5.599,0,10.154-4.555,10.154-10.154
					C126.182,188.936,121.627,184.381,116.028,184.381z"/>
			</g>
			<path style="fill:#66696B;" d="M123.096,194.536c0,3.904-3.165,7.068-7.068,7.068c-3.904,0-7.069-3.165-7.069-7.068
				c0-3.904,3.165-7.068,7.069-7.068C119.931,187.467,123.096,190.632,123.096,194.536z"/>
			<path style="fill:#433939;" d="M119.244,194.536c0,1.776-1.44,3.216-3.216,3.216c-1.776,0-3.216-1.44-3.216-3.216
				s1.44-3.216,3.216-3.216C117.804,191.32,119.244,192.759,119.244,194.536z"/>
		</g>
		<g>
			<g>
				
					<ellipse transform="matrix(0.9239 -0.3827 0.3827 0.9239 -63.1337 71.6772)" style="fill:#66696B;" cx="148.606" cy="194.536" rx="14.397" ry="14.397"/>
				<path style="fill:#3B3637;" d="M148.606,209.058c-8.008,0-14.523-6.515-14.523-14.523c0-8.008,6.515-14.523,14.523-14.523
					c8.008,0,14.523,6.515,14.523,14.523C163.128,202.544,156.613,209.058,148.606,209.058z M148.606,180.264
					c-7.87,0-14.272,6.402-14.272,14.272c0,7.87,6.402,14.272,14.272,14.272c7.869,0,14.272-6.402,14.272-14.272
					C162.878,186.666,156.475,180.264,148.606,180.264z"/>
			</g>
			<g>
				
					<ellipse transform="matrix(0.9239 -0.3827 0.3827 0.9239 -63.1337 71.6772)" style="fill:#0085C7;" cx="148.606" cy="194.536" rx="14.397" ry="14.397"/>
				<path style="fill:#006872;" d="M148.606,209.058c-8.008,0-14.523-6.515-14.523-14.523c0-8.008,6.515-14.523,14.523-14.523
					c8.008,0,14.523,6.515,14.523,14.523C163.128,202.544,156.613,209.058,148.606,209.058z M148.606,180.264
					c-7.87,0-14.272,6.402-14.272,14.272c0,7.87,6.402,14.272,14.272,14.272c7.869,0,14.272-6.402,14.272-14.272
					C162.878,186.666,156.475,180.264,148.606,180.264z"/>
			</g>
			<circle style="fill:#66696B;" cx="148.606" cy="194.536" r="12.285"/>
			<circle style="fill:#433939;" cx="148.606" cy="194.536" r="11.512"/>
			<g>
				
					<ellipse transform="matrix(0.1602 -0.9871 0.9871 0.1602 -67.222 310.0612)" style="fill:#E53626;" cx="148.606" cy="194.536" rx="10.28" ry="10.28"/>
				<path style="fill:#530E00;" d="M148.606,204.941c-5.738,0-10.405-4.668-10.405-10.405c0-5.738,4.668-10.405,10.405-10.405
					c5.738,0,10.405,4.668,10.405,10.405C159.011,200.273,154.343,204.941,148.606,204.941z M148.606,184.381
					c-5.599,0-10.155,4.555-10.155,10.154c0,5.599,4.555,10.154,10.155,10.154c5.599,0,10.155-4.555,10.155-10.154
					C158.76,188.936,154.205,184.381,148.606,184.381z"/>
			</g>
			<circle style="fill:#66696B;" cx="148.606" cy="194.536" r="7.069"/>
			<path style="fill:#433939;" d="M151.822,194.536c0,1.776-1.44,3.216-3.216,3.216s-3.216-1.44-3.216-3.216s1.44-3.216,3.216-3.216
				S151.822,192.759,151.822,194.536z"/>
		</g>
	</g>
	<g>
		<polygon style="fill:#535658;" points="51.877,164.066 48.134,164.066 48.134,163.063 51.37,163.063 66.723,142.259 
			66.723,139.61 67.726,139.61 67.726,142.589 		"/>
		<path style="fill:#3A3C3E;" d="M51.94,164.191h-3.932v-1.254h3.299l15.29-20.719v-2.734h1.254v3.146l-0.024,0.033L51.94,164.191z
			 M48.26,163.941h3.554l15.787-21.393v-2.813h-0.753v2.565l-0.024,0.033l-15.39,20.855H48.26V163.941z"/>
	</g>
	<g>
		<g>
			<rect x="175.943" y="107.231" style="fill:#3C3F41;" width="5.577" height="64.436"/>
			<path style="fill:#231F20;" d="M181.519,171.792h-5.577c-0.069,0-0.125-0.056-0.125-0.125v-64.436
				c0-0.069,0.056-0.125,0.125-0.125h5.577c0.069,0,0.126,0.056,0.126,0.125v64.436
				C181.645,171.736,181.589,171.792,181.519,171.792z M176.068,171.541h5.326v-64.185h-5.326V171.541z"/>
		</g>
		<rect x="175.943" y="107.231" style="fill:#3C3F41;" width="0.697" height="64.436"/>
		<rect x="180.136" y="107.231" style="fill:#3C3F41;" width="1.384" height="64.436"/>
		<g>
			<path style="fill:#3C3F41;" d="M179.855,165.715c0,0.621-0.503,1.124-1.124,1.124c-0.621,0-1.124-0.503-1.124-1.124
				c0-0.621,0.503-1.124,1.124-1.124C179.352,164.591,179.855,165.094,179.855,165.715z"/>
			<path style="fill:#3C3F41;" d="M179.855,147.895c0,0.621-0.503,1.124-1.124,1.124c-0.621,0-1.124-0.503-1.124-1.124
				c0-0.621,0.503-1.124,1.124-1.124C179.352,146.771,179.855,147.274,179.855,147.895z"/>
			<path style="fill:#3C3F41;" d="M179.855,130.074c0,0.621-0.503,1.124-1.124,1.124c-0.621,0-1.124-0.503-1.124-1.124
				c0-0.621,0.503-1.124,1.124-1.124C179.352,128.951,179.855,129.454,179.855,130.074z"/>
			<path style="fill:#3C3F41;" d="M179.855,112.254c0,0.621-0.503,1.124-1.124,1.124c-0.621,0-1.124-0.503-1.124-1.124
				c0-0.621,0.503-1.124,1.124-1.124C179.352,111.13,179.855,111.633,179.855,112.254z"/>
		</g>
	</g>
	<g>
		<g>
			<rect x="222.947" y="107.231" style="fill:#3C3F41;" width="5.577" height="64.436"/>
			<path style="fill:#231F20;" d="M228.524,171.792h-5.577c-0.069,0-0.125-0.056-0.125-0.125v-64.436
				c0-0.069,0.056-0.125,0.125-0.125h5.577c0.069,0,0.126,0.056,0.126,0.125v64.436C228.65,171.736,228.594,171.792,228.524,171.792
				z M223.073,171.541h5.326v-64.185h-5.326V171.541z"/>
		</g>
		<rect x="222.947" y="107.231" style="fill:#3C3F41;" width="0.697" height="64.436"/>
		<rect x="227.14" y="107.231" style="fill:#3C3F41;" width="1.384" height="64.436"/>
		<g>
			<circle style="fill:#3C3F41;" cx="225.736" cy="165.715" r="1.124"/>
			<circle style="fill:#3C3F41;" cx="225.736" cy="147.895" r="1.124"/>
			<circle style="fill:#3C3F41;" cx="225.736" cy="130.074" r="1.124"/>
			<circle style="fill:#3C3F41;" cx="225.736" cy="112.254" r="1.124"/>
		</g>
	</g>
	<g>
		<g>
			<path style="fill:#006872;" d="M44.311,163.046L5.174,204.816H63.48l3.794-41.769H44.311z M10.764,203.678
				c-0.158,0-0.316-0.073-0.435-0.217c-0.23-0.282-0.221-0.729,0.018-0.998l34.088-38.286c0.24-0.269,0.621-0.26,0.851,0.021
				c0.23,0.282,0.222,0.729-0.018,0.998l-34.088,38.286C11.064,203.613,10.914,203.678,10.764,203.678z M16.3,203.678
				c-0.148,0-0.297-0.064-0.413-0.192c-0.242-0.267-0.253-0.714-0.025-0.998l30.799-38.286c0.228-0.284,0.609-0.296,0.851-0.029
				c0.242,0.267,0.253,0.714,0.025,0.998l-30.799,38.286C16.62,203.603,16.46,203.678,16.3,203.678z M21.836,203.678
				c-0.137,0-0.274-0.055-0.388-0.166c-0.254-0.251-0.287-0.696-0.072-0.995l27.511-38.286c0.214-0.298,0.593-0.336,0.848-0.085
				c0.254,0.251,0.286,0.696,0.072,0.995l-27.511,38.286C22.177,203.592,22.007,203.678,21.836,203.678z M27.371,203.678
				c-0.125,0-0.25-0.045-0.358-0.139c-0.267-0.232-0.323-0.674-0.125-0.987l24.223-38.286c0.198-0.313,0.575-0.379,0.842-0.146
				c0.267,0.232,0.323,0.674,0.125,0.987l-24.223,38.286C27.737,203.579,27.555,203.678,27.371,203.678z M32.906,203.678
				c-0.111,0-0.224-0.036-0.324-0.112c-0.28-0.21-0.361-0.647-0.182-0.975l20.934-38.286c0.179-0.328,0.551-0.423,0.831-0.213
				c0.28,0.211,0.361,0.647,0.182,0.975l-20.935,38.287C33.299,203.563,33.104,203.678,32.906,203.678z M38.442,203.678
				c-0.097,0-0.194-0.027-0.286-0.085c-0.292-0.185-0.401-0.614-0.243-0.957l17.646-38.286c0.158-0.342,0.523-0.47,0.816-0.285
				c0.292,0.185,0.401,0.614,0.243,0.957l-17.646,38.286C38.863,203.544,38.656,203.678,38.442,203.678z M43.978,203.678
				c-0.081,0-0.163-0.019-0.242-0.06c-0.304-0.157-0.443-0.573-0.309-0.93l14.358-38.286c0.134-0.357,0.489-0.52,0.793-0.362
				c0.305,0.157,0.443,0.573,0.309,0.93l-14.358,38.286C44.43,203.52,44.209,203.678,43.978,203.678z M49.514,203.678
				c-0.064,0-0.129-0.012-0.193-0.038c-0.315-0.125-0.483-0.526-0.377-0.895l11.069-38.286c0.107-0.369,0.449-0.565,0.764-0.442
				c0.315,0.126,0.483,0.526,0.377,0.895l-11.069,38.286C49.999,203.493,49.765,203.678,49.514,203.678z M55.05,203.678
				c-0.046,0-0.093-0.006-0.14-0.019c-0.323-0.09-0.523-0.471-0.446-0.85l7.781-38.286c0.077-0.379,0.403-0.611,0.725-0.523
				c0.323,0.09,0.523,0.471,0.446,0.85l-7.781,38.286C55.569,203.46,55.322,203.678,55.05,203.678z M61.181,203.068
				c-0.041,0.354-0.299,0.61-0.595,0.61c-0.027,0-0.055-0.002-0.083-0.007c-0.329-0.053-0.56-0.409-0.514-0.795l4.493-38.286
				c0.045-0.386,0.347-0.657,0.678-0.603c0.329,0.053,0.56,0.409,0.514,0.795L61.181,203.068z"/>
			<path style="fill:#003A41;" d="M63.595,204.941H4.884l0.198-0.211l39.174-41.809h23.155l-0.012,0.137L63.595,204.941z
				 M5.463,204.69h57.902l3.771-41.518H44.365L5.463,204.69z M49.514,203.803c-0.081,0-0.162-0.016-0.239-0.046
				c-0.373-0.148-0.575-0.618-0.451-1.047l11.07-38.287c0.065-0.225,0.212-0.408,0.402-0.501c0.168-0.082,0.355-0.09,0.528-0.023
				c0.373,0.149,0.575,0.618,0.451,1.047l-11.069,38.287C50.105,203.574,49.828,203.803,49.514,203.803z M60.584,164.105
				c-0.06,0-0.12,0.015-0.178,0.043c-0.127,0.062-0.226,0.189-0.272,0.346l-11.07,38.286c-0.089,0.308,0.047,0.642,0.303,0.744
				c0.242,0.096,0.512-0.071,0.596-0.36l11.069-38.286c0.089-0.308-0.047-0.642-0.303-0.744
				C60.682,164.115,60.633,164.105,60.584,164.105z M43.978,203.803c-0.104,0-0.205-0.025-0.299-0.074
				c-0.358-0.185-0.524-0.672-0.369-1.086l14.358-38.286c0.081-0.217,0.24-0.385,0.436-0.46c0.175-0.067,0.364-0.056,0.532,0.03
				c0.358,0.185,0.524,0.672,0.369,1.086L44.646,203.3C44.532,203.606,44.269,203.803,43.978,203.803z M58.335,164.105
				c-0.048,0-0.096,0.009-0.142,0.027c-0.129,0.049-0.235,0.164-0.291,0.314l-14.358,38.286c-0.112,0.298,0,0.646,0.249,0.775
				c0.231,0.119,0.514-0.017,0.618-0.295l14.358-38.286c0.112-0.298,0-0.646-0.249-0.775
				C58.461,164.12,58.398,164.105,58.335,164.105z M60.585,203.803c-0.034,0-0.069-0.003-0.103-0.008
				c-0.393-0.063-0.671-0.482-0.618-0.934l4.493-38.287c0.028-0.239,0.145-0.452,0.32-0.584c0.148-0.111,0.326-0.157,0.503-0.128
				c0.394,0.063,0.672,0.482,0.619,0.934l-4.493,38.287C61.257,203.493,60.948,203.803,60.585,203.803z M65.075,164.105
				c-0.087,0-0.172,0.029-0.247,0.086c-0.121,0.091-0.201,0.242-0.221,0.413l-4.493,38.287c-0.037,0.32,0.146,0.614,0.409,0.657
				c0.276,0.046,0.498-0.185,0.534-0.494l4.493-38.287c0.038-0.32-0.146-0.614-0.41-0.657
				C65.118,164.107,65.096,164.105,65.075,164.105z M55.05,203.803c-0.059,0-0.117-0.008-0.174-0.024
				c-0.384-0.107-0.624-0.554-0.535-0.996l7.781-38.286c0.047-0.232,0.18-0.43,0.364-0.542c0.159-0.098,0.342-0.125,0.518-0.076
				c0.385,0.107,0.625,0.554,0.535,0.996l-7.781,38.287C55.681,203.539,55.39,203.803,55.05,203.803z M62.832,164.106
				c-0.074,0-0.148,0.021-0.215,0.062c-0.125,0.077-0.216,0.215-0.249,0.379l-7.781,38.286c-0.064,0.316,0.096,0.632,0.357,0.704
				c0.248,0.069,0.507-0.125,0.568-0.427l7.781-38.286c0.064-0.316-0.096-0.632-0.357-0.704
				C62.902,164.111,62.867,164.106,62.832,164.106z M38.442,203.803c-0.123,0-0.245-0.036-0.353-0.104
				c-0.343-0.218-0.473-0.718-0.29-1.115l17.646-38.286c0.095-0.206,0.263-0.358,0.461-0.416c0.181-0.054,0.372-0.026,0.536,0.077
				c0.343,0.218,0.473,0.718,0.291,1.115L39.086,203.36C38.96,203.633,38.713,203.803,38.442,203.803z M56.089,164.105
				c-0.037,0-0.075,0.005-0.112,0.016c-0.128,0.038-0.239,0.14-0.304,0.281l-17.646,38.286c-0.132,0.288-0.044,0.646,0.196,0.798
				c0.223,0.14,0.512,0.033,0.635-0.232l17.646-38.286c0.132-0.288,0.044-0.646-0.197-0.799
				C56.239,164.127,56.165,164.105,56.089,164.105z M32.906,203.803c-0.142,0-0.28-0.047-0.4-0.137
				c-0.327-0.246-0.425-0.755-0.217-1.135l20.935-38.287c0.107-0.195,0.282-0.332,0.481-0.375c0.187-0.041,0.377,0.003,0.536,0.122
				c0.328,0.246,0.425,0.755,0.217,1.135l-20.934,38.286C33.39,203.657,33.159,203.803,32.906,203.803z M53.841,164.105
				c-0.028,0-0.055,0.003-0.083,0.009c-0.129,0.028-0.241,0.117-0.314,0.251L32.51,202.651c-0.15,0.275-0.084,0.64,0.147,0.814
				c0.213,0.16,0.508,0.079,0.646-0.173l20.934-38.286c0.15-0.275,0.084-0.64-0.147-0.814
				C54.015,164.135,53.929,164.105,53.841,164.105z M27.371,203.803c-0.161,0-0.313-0.059-0.44-0.17
				c-0.311-0.271-0.378-0.786-0.149-1.149l24.223-38.286c0.117-0.185,0.298-0.308,0.497-0.337c0.192-0.028,0.38,0.03,0.533,0.163
				c0.311,0.271,0.378,0.786,0.149,1.149l-24.223,38.286C27.825,203.674,27.604,203.803,27.371,203.803z M51.595,164.105
				c-0.019,0-0.037,0.002-0.056,0.004c-0.128,0.019-0.242,0.098-0.321,0.223l-24.223,38.286c-0.166,0.262-0.121,0.633,0.101,0.826
				c0.203,0.177,0.502,0.121,0.653-0.119l24.223-38.287c0.166-0.262,0.121-0.632-0.101-0.826
				C51.789,164.143,51.693,164.105,51.595,164.105z M21.836,203.803c-0.175,0-0.344-0.072-0.476-0.202
				c-0.296-0.292-0.334-0.811-0.086-1.157l27.511-38.286c0.127-0.177,0.307-0.284,0.508-0.301c0.195-0.019,0.383,0.054,0.53,0.2
				c0.296,0.292,0.335,0.811,0.086,1.157L22.398,203.5C22.259,203.693,22.054,203.803,21.836,203.803z M49.347,164.105
				c-0.011,0-0.022,0.001-0.033,0.002c-0.126,0.011-0.242,0.081-0.325,0.197L21.478,202.59c-0.18,0.25-0.153,0.623,0.059,0.832
				c0.193,0.191,0.494,0.158,0.658-0.069l27.511-38.287c0.18-0.25,0.153-0.623-0.058-0.832
				C49.561,164.151,49.456,164.105,49.347,164.105z M16.3,203.803c-0.19,0-0.37-0.083-0.506-0.234
				c-0.281-0.311-0.295-0.831-0.03-1.16l30.799-38.287c0.135-0.167,0.319-0.262,0.518-0.268c0.189-0.01,0.383,0.077,0.524,0.233
				c0.281,0.311,0.295,0.831,0.03,1.16l-30.8,38.287C16.698,203.705,16.503,203.803,16.3,203.803z M47.1,164.105
				c-0.004,0-0.007,0-0.011,0c-0.125,0.004-0.241,0.066-0.329,0.174L15.96,202.566c-0.191,0.237-0.182,0.612,0.02,0.835
				c0.184,0.203,0.486,0.193,0.66-0.024l30.8-38.286c0.191-0.237,0.182-0.612-0.02-0.835
				C47.331,164.158,47.218,164.105,47.1,164.105z M10.764,203.803c-0.201,0-0.395-0.096-0.532-0.264
				c-0.267-0.327-0.257-0.848,0.022-1.161l34.088-38.286c0.141-0.158,0.329-0.238,0.524-0.238c0.199,0.004,0.382,0.098,0.517,0.263
				c0.267,0.327,0.257,0.848-0.022,1.161l-34.088,38.286C11.138,203.719,10.957,203.803,10.764,203.803z M44.853,164.105
				c-0.12,0-0.234,0.055-0.323,0.154l-34.088,38.286c-0.2,0.225-0.207,0.6-0.015,0.835c0.175,0.215,0.477,0.223,0.66,0.017
				l34.088-38.286c0.2-0.225,0.207-0.6,0.014-0.835c-0.088-0.108-0.204-0.169-0.328-0.171
				C44.859,164.105,44.856,164.105,44.853,164.105z"/>
		</g>
		<path style="opacity:0.46;fill:#66696B;" d="M64.802,172.214l-3.621,30.855c-0.041,0.354-0.299,0.609-0.595,0.609
			c-0.027,0-0.055-0.002-0.083-0.007c-0.329-0.053-0.56-0.409-0.514-0.795l3.383-28.831c-0.159,0.192-0.318,0.384-0.479,0.573
			c-0.607,0.71-1.237,1.401-1.884,2.075l-5.374,26.443c-0.066,0.324-0.313,0.542-0.585,0.542c-0.046,0-0.093-0.006-0.14-0.019
			c-0.323-0.09-0.523-0.471-0.446-0.85l4.992-24.564c-0.938,0.898-1.91,1.763-2.908,2.596l-6.464,22.359
			c-0.085,0.294-0.319,0.479-0.57,0.479c-0.064,0-0.129-0.012-0.193-0.038c-0.315-0.125-0.483-0.526-0.377-0.895l5.947-20.568
			c-1.104,0.86-2.234,1.684-3.385,2.475l-6.976,18.604c-0.099,0.265-0.32,0.422-0.551,0.422c-0.081,0-0.163-0.019-0.242-0.06
			c-0.304-0.157-0.443-0.573-0.309-0.93l6.328-16.876c-1.239,0.802-2.5,1.571-3.782,2.305l-7.001,15.191
			c-0.109,0.236-0.316,0.37-0.53,0.37c-0.097,0-0.195-0.027-0.286-0.085c-0.292-0.185-0.401-0.614-0.243-0.957l6.22-13.496
			c-1.342,0.725-2.703,1.416-4.08,2.07l-6.639,12.143c-0.115,0.21-0.309,0.325-0.507,0.325c-0.111,0-0.224-0.036-0.324-0.112
			c-0.28-0.21-0.361-0.647-0.182-0.975l5.742-10.5c-0.761,0.34-1.526,0.673-2.295,0.993c-0.653,0.271-1.31,0.535-1.97,0.791
			l-6.022,9.518c-0.118,0.187-0.3,0.285-0.484,0.285c-0.125,0-0.25-0.045-0.358-0.139c-0.267-0.232-0.323-0.674-0.125-0.987
			l5.025-7.942c-1.419,0.512-2.853,0.986-4.299,1.417l-5.318,7.4c-0.119,0.165-0.289,0.251-0.46,0.251
			c-0.137,0-0.274-0.054-0.388-0.166c-0.254-0.251-0.287-0.696-0.072-0.995l4.262-5.931c-1.378,0.37-2.766,0.699-4.164,0.983
			l-4.736,5.887c-0.118,0.147-0.278,0.222-0.438,0.222c-0.148,0-0.297-0.064-0.413-0.192c-0.242-0.267-0.253-0.714-0.025-0.998
			l3.662-4.553c-0.4,0.068-0.8,0.134-1.201,0.194c-0.889,0.134-1.783,0.247-2.68,0.34l-4.463,5.012
			c-0.117,0.131-0.267,0.196-0.417,0.196c-0.158,0-0.316-0.073-0.435-0.217c-0.23-0.282-0.221-0.729,0.018-0.998l3.411-3.831
			c-0.964,0.065-1.929,0.104-2.894,0.111l-5.691,6.074H63.48l3.222-35.475C66.117,170.329,65.481,171.288,64.802,172.214z"/>
	</g>
	<g>
		<g>
			<g>
				<path style="fill:#E53626;" d="M100.379,80.21v34.224c0,0.488,3.688,0.884,8.237,0.884c4.549,0,8.237-0.396,8.237-0.884V80.21
					H100.379z"/>
				<path style="fill:#530E00;" d="M108.617,115.443c-0.083,0-8.363-0.011-8.363-1.009v-34.35h16.726v34.35
					C116.98,115.432,108.7,115.443,108.617,115.443z M100.505,80.335v34.099c0.138,0.305,3.108,0.758,8.112,0.758
					c5.005,0,7.974-0.453,8.113-0.766l-0.001-34.091H100.505z"/>
			</g>
			<path style="opacity:0.46;fill:#66696B;" d="M101.236,80.21h-0.857v34.224c0,0.141,0.309,0.274,0.857,0.392V80.21z"/>
			<path style="opacity:0.22;fill:#66696B;" d="M103.568,80.21v34.922c0.809,0.067,1.738,0.119,2.746,0.15V80.21H103.568z"/>
			<path style="opacity:0.46;fill:#66696B;" d="M111.726,80.21v35.043c3.008-0.132,5.128-0.448,5.128-0.818V80.21H111.726z"/>
			<g>
				<path style="fill:#3C3F41;" d="M100.379,74.704v11.739c0,0.488,3.688,0.884,8.237,0.884c4.549,0,8.237-0.396,8.237-0.884V74.704
					H100.379z"/>
				<path style="fill:#231F20;" d="M108.617,87.453c-0.083,0-8.363-0.011-8.363-1.009V74.704c0-0.069,0.056-0.125,0.125-0.125
					h16.475c0.069,0,0.125,0.056,0.125,0.125v11.739C116.98,87.441,108.7,87.453,108.617,87.453z M100.505,74.83v11.614
					c0.138,0.305,3.108,0.758,8.112,0.758c5.005,0,7.974-0.453,8.113-0.766l-0.001-11.606H100.505z"/>
			</g>
			<path style="opacity:0.46;fill:#66696B;" d="M101.236,74.704h-0.857v11.739c0,0.141,0.309,0.274,0.857,0.392V74.704z"/>
			<path style="opacity:0.22;fill:#66696B;" d="M103.568,74.704v12.437c0.809,0.067,1.738,0.119,2.746,0.15V74.704H103.568z"/>
			<path style="opacity:0.46;fill:#66696B;" d="M111.726,74.704v12.557c3.008-0.132,5.128-0.448,5.128-0.818V74.704H111.726z"/>
			<g>
				<path style="fill:#3C3F41;" d="M96.484,66.365l3.862,10.866c0,0.488,3.688,0.884,8.237,0.884c4.549,0,8.237-0.396,8.237-0.884
					l3.928-11.131L96.484,66.365z"/>
				<path style="fill:#231F20;" d="M108.584,78.24c-2.205,0-4.278-0.092-5.838-0.259c-2.401-0.258-2.519-0.574-2.525-0.727
					l-3.855-10.847c-0.014-0.038-0.008-0.08,0.015-0.114c0.023-0.033,0.061-0.053,0.101-0.054l24.264-0.265
					c0.04,0.003,0.08,0.019,0.103,0.052c0.024,0.033,0.03,0.076,0.016,0.115l-3.921,11.112c-0.006,0.154-0.123,0.47-2.525,0.727
					C112.862,78.148,110.788,78.24,108.584,78.24z M96.662,66.489l3.803,10.701c0.005,0.013,0.007,0.028,0.007,0.042
					c0.138,0.305,3.108,0.758,8.112,0.758c5.004,0,7.974-0.453,8.113-0.766c0-0.014,0.001-0.02,0.006-0.034l3.868-10.962
					L96.662,66.489z"/>
			</g>
			<g>
				<path style="fill:#E53626;" d="M96.484,66.365l3.862,10.866c0,0.488,3.688,0.884,8.237,0.884c4.549,0,8.237-0.396,8.237-0.884
					l3.928-11.131L96.484,66.365z"/>
				<path style="fill:#530E00;" d="M108.584,78.24c-2.205,0-4.278-0.092-5.838-0.259c-2.401-0.258-2.519-0.574-2.525-0.727
					l-3.914-11.012l24.619-0.269l-3.981,11.281c-0.006,0.154-0.123,0.47-2.525,0.727C112.862,78.148,110.788,78.24,108.584,78.24z
					 M96.662,66.489l3.81,10.721v0.021c0.138,0.305,3.108,0.758,8.112,0.758c5.004,0,7.974-0.453,8.113-0.766l0.006-0.034
					l3.868-10.962L96.662,66.489z"/>
			</g>
			<path style="opacity:0.22;fill:#66696B;" d="M105.872,72.177c-0.128-1.968-0.204-3.941-0.175-5.913l-5.27,0.058
				c0.142,0.596,0.291,1.191,0.446,1.784c0.587,2.245,1.247,4.47,1.852,6.71c0.279,1.033,0.544,2.07,0.786,3.112
				c0.834,0.07,1.799,0.123,2.845,0.154C106.179,76.115,106.001,74.148,105.872,72.177z"/>
			<path style="opacity:0.46;fill:#66696B;" d="M101.382,75.296c-0.455-1.271-0.852-2.565-1.285-3.843
				c-0.577-1.703-1.16-3.404-1.733-5.108l-1.879,0.021l3.862,10.866c0,0.218,0.737,0.417,1.957,0.572
				C101.997,76.967,101.682,76.134,101.382,75.296z"/>
			<path style="opacity:0.46;fill:#66696B;" d="M113.598,65.194c-0.145,0.807-0.972,8.077-1.454,10.415
				c-0.168,0.814-0.332,1.628-0.494,2.443c3.03-0.131,5.171-0.449,5.171-0.82l3.928-11.131L113.598,65.194z"/>
			<g>
				<path style="fill:#0085C7;" d="M99.399,54.884L96.36,66.1c0,0.726,5.488,1.315,12.257,1.315c6.77,0,12.257-0.589,12.257-1.315
					l-3.215-11.216H99.399z"/>
				<path style="fill:#006872;" d="M108.617,67.54c-4.978,0-12.382-0.384-12.382-1.44l0.004-0.033l3.065-11.309h18.45l3.246,11.342
					C120.999,67.157,113.594,67.54,108.617,67.54z M96.486,66.112c0.078,0.429,4.131,1.177,12.13,1.177
					c7.995,0,12.049-0.747,12.131-1.176l-3.183-11.104H99.495L96.486,66.112z"/>
			</g>
			<path style="opacity:0.22;fill:#66696B;" d="M105.693,67.51c0.187-2.46,0.32-10.939,0.507-12.626h-1.865
				c-0.169,0.558-0.335,1.117-0.497,1.678c-0.595,2.053-3.062,9.39-3.411,10.854c1.198,0.1,3.239-0.102,4.733-0.054
				C105.161,67.352,105.692,67.519,105.693,67.51z"/>
			<path style="opacity:0.46;fill:#66696B;" d="M98.278,66.806c0.158-0.715,0.313-1.432,0.473-2.146
				c0.321-1.433,0.702-2.848,1.112-4.258c0.536-1.847,1.111-3.682,1.684-5.518h-2.148L96.36,66.1
				C96.36,66.36,97.065,66.602,98.278,66.806z"/>
			<path style="opacity:0.46;fill:#66696B;" d="M117.659,54.884h-6.478c0.265,1.546,0.506,3.096,0.781,4.641
				c0.282,1.58,0.609,3.152,0.921,4.726c0.201,1.018,0.399,2.037,0.588,3.057c4.355-0.202,7.404-0.666,7.404-1.208L117.659,54.884z"
				/>
			<g>
				<ellipse style="fill:#3C3F41;" cx="108.617" cy="54.884" rx="9.13" ry="0.494"/>
				<path style="fill:#231F20;" d="M108.617,55.504c-2.44,0-4.736-0.051-6.463-0.145c-2.793-0.151-2.793-0.323-2.793-0.475
					c0-0.152,0-0.324,2.793-0.475c1.727-0.094,4.022-0.145,6.463-0.145c2.441,0,4.736,0.051,6.463,0.145
					c2.793,0.151,2.793,0.323,2.793,0.475c0,0.152,0,0.324-2.793,0.475C113.352,55.452,111.058,55.504,108.617,55.504z
					 M99.777,54.884c0.859,0.188,4.302,0.369,8.84,0.369s7.981-0.181,8.84-0.369c-0.859-0.188-4.302-0.369-8.84-0.369
					S100.636,54.695,99.777,54.884z M117.647,54.948h0.003H117.647z"/>
			</g>
		</g>
		<g>
			<rect x="97.719" y="109.55" style="fill:#3C3F41;" width="21.795" height="5.276"/>
			<path style="fill:#231F20;" d="M119.514,114.952H97.719c-0.069,0-0.125-0.056-0.125-0.125v-5.276
				c0-0.069,0.056-0.125,0.125-0.125h21.795c0.069,0,0.125,0.056,0.125,0.125v5.276C119.64,114.896,119.584,114.952,119.514,114.952
				z M97.845,114.701h21.544v-5.025H97.845V114.701z"/>
		</g>
		<g>
			<path style="fill:#3C3F41;" d="M68.945,141.866h-2.432c-0.492,0-0.894-0.402-0.894-0.894l0,0c0-0.492,0.402-0.894,0.894-0.894
				h2.432c0.492,0,0.894,0.402,0.894,0.894l0,0C69.839,141.464,69.437,141.866,68.945,141.866z"/>
			<path style="fill:#231F20;" d="M69.146,141.992h-2.833c-0.452,0-0.819-0.368-0.819-0.819v-0.401c0-0.452,0.368-0.819,0.819-0.819
				h2.833c0.451,0,0.819,0.368,0.819,0.819v0.401C69.965,141.624,69.597,141.992,69.146,141.992z M66.312,140.203
				c-0.313,0-0.568,0.255-0.568,0.568v0.401c0,0.313,0.255,0.568,0.568,0.568h2.833c0.313,0,0.568-0.255,0.568-0.568v-0.401
				c0-0.313-0.255-0.568-0.568-0.568H66.312z"/>
		</g>
		<g>
			<g>
				<path style="fill:#3C3F41;" d="M81.109,84.72c-0.166-0.666,0.708-1.498,1.332-1.915s-1.998-1.165-1.998-1.165h-1.159
					c0,0-2.622,0.749-1.998,1.165c0.624,0.416,1.498,1.249,1.332,1.915c-0.166,0.666-2.039,0.926-1.915,2.211h1.909h2.503h1.909
					C83.149,85.646,81.276,85.386,81.109,84.72z"/>
				<path style="fill:#231F20;" d="M83.024,87.056h-6.32c-0.065,0-0.118-0.049-0.125-0.113c-0.083-0.86,0.637-1.297,1.215-1.649
					c0.334-0.203,0.649-0.394,0.702-0.605c0.146-0.583-0.686-1.383-1.28-1.78c-0.153-0.102-0.159-0.224-0.149-0.287
					c0.073-0.466,1.688-0.962,2.181-1.103c0.011-0.003,0.023-0.005,0.035-0.005h1.159c0.012,0,0.023,0.002,0.035,0.005
					c0.493,0.141,2.109,0.637,2.182,1.103c0.01,0.064,0.004,0.186-0.149,0.287c-0.594,0.396-1.425,1.197-1.28,1.78
					c0.053,0.211,0.368,0.403,0.702,0.605c0.579,0.351,1.299,0.789,1.216,1.649C83.142,87.007,83.089,87.056,83.024,87.056z
					 M76.823,86.805h6.081c-0.005-0.631-0.585-0.983-1.101-1.296c-0.396-0.24-0.738-0.448-0.816-0.759l0,0
					c-0.19-0.762,0.781-1.647,1.384-2.049c0.036-0.024,0.04-0.038,0.04-0.038c0.013-0.151-0.832-0.566-1.986-0.897h-1.124
					c-1.154,0.332-1.999,0.746-1.986,0.897c0,0,0.004,0.015,0.04,0.038c0.604,0.403,1.575,1.287,1.384,2.049
					c-0.078,0.311-0.42,0.519-0.816,0.759C77.409,85.822,76.828,86.175,76.823,86.805z"/>
			</g>
			<g>
				<path style="fill:#3C3F41;" d="M82.923,79.321c0,1.689-1.37,3.059-3.059,3.059c-1.69,0-3.059-1.37-3.059-3.059
					c0-1.69,1.37-3.059,3.059-3.059C81.553,76.261,82.923,77.631,82.923,79.321z"/>
				<path style="fill:#231F20;" d="M79.864,82.505c-1.756,0-3.185-1.429-3.185-3.185c0-1.756,1.429-3.185,3.185-3.185
					c1.756,0,3.185,1.429,3.185,3.185C83.048,81.077,81.619,82.505,79.864,82.505z M79.864,76.387c-1.618,0-2.934,1.316-2.934,2.934
					s1.316,2.934,2.934,2.934c1.618,0,2.934-1.316,2.934-2.934S81.481,76.387,79.864,76.387z"/>
			</g>
		</g>
		<g>
			<path style="fill:#6F7173;" d="M139.024,112.263H77.228v0.063c-5.265,0-9.534,12.187-9.534,27.221s4.268,27.221,9.534,27.221
				c0.216,0,0.429-0.022,0.641-0.063h61.154V112.263z"/>
			<path style="fill:#006872;" d="M77.228,166.893c-5.326,0-9.659-12.268-9.659-27.346c0-14.96,4.265-27.153,9.534-27.344v-0.065
				h62.046v54.693H77.87C77.666,166.872,77.442,166.893,77.228,166.893z M77.228,112.451c-5.188,0-9.408,12.155-9.408,27.096
				c0,14.941,4.22,27.095,9.408,27.095c0.198,0,0.406-0.02,0.618-0.061l61.052-0.002v-54.191H77.354v0.063H77.228z"/>
		</g>
		<g>
			<g>
				<path style="fill:#E53626;" d="M80.306,139.547c0-15.034,4.268-27.221,9.534-27.221v-0.063H77.228v0.063
					c-5.265,0-9.534,12.187-9.534,27.221s4.268,27.221,9.534,27.221c0.216,0,0.429-0.022,0.641-0.063h11.328
					C84.232,165.763,80.306,153.965,80.306,139.547z"/>
				<path style="fill:#530E00;" d="M77.228,166.893c-5.326,0-9.659-12.268-9.659-27.346c0-14.96,4.265-27.153,9.534-27.344v-0.065
					h12.862v0.314H89.84c-5.188,0-9.408,12.155-9.408,27.096c0,14.224,3.861,26.1,8.79,27.035l-0.023,0.249H77.87
					C77.666,166.872,77.442,166.893,77.228,166.893z M77.228,112.451c-5.188,0-9.408,12.155-9.408,27.096
					c0,14.941,4.22,27.095,9.408,27.095c0.198,0,0.406-0.02,0.618-0.061l10.525-0.002c-4.653-2.004-8.191-13.463-8.191-27.033
					c0-13.99,3.73-25.56,8.522-27.158H77.354v0.063H77.228z"/>
			</g>
			<g>
				<path style="fill:#8D271A;" d="M89.84,166.768c0.216,0,0.429-0.022,0.641-0.063h-1.283
					C89.41,166.745,89.624,166.768,89.84,166.768z"/>
				<path style="fill:#45231C;" d="M89.84,166.893c-0.214,0-0.438-0.022-0.665-0.065l0.023-0.249h1.283l0.023,0.249
					C90.277,166.872,90.053,166.893,89.84,166.893z"/>
			</g>
		</g>
		<g>
			<g>
				<rect x="75.498" y="86.017" style="fill:#3C3F41;" width="8.234" height="1.827"/>
				<path style="fill:#231F20;" d="M83.732,87.97h-8.234c-0.069,0-0.125-0.056-0.125-0.125v-1.827c0-0.069,0.056-0.125,0.125-0.125
					h8.234c0.069,0,0.125,0.056,0.125,0.125v1.827C83.858,87.914,83.801,87.97,83.732,87.97z M75.623,87.719h7.983v-1.576h-7.983
					V87.719z"/>
			</g>
			<g>
				<g>
					<g>
						<rect x="73.233" y="87.401" style="fill:#8D271A;" width="13.261" height="1.827"/>
						<path style="fill:#59200C;" d="M86.619,89.354H73.108v-2.078h13.511V89.354z M73.359,89.103h13.01v-1.577h-13.01V89.103z"/>
					</g>
					<g>
						<rect x="71.622" y="88.572" style="fill:#8D271A;" width="16.483" height="2.376"/>
						<path style="fill:#59200C;" d="M88.231,91.074H71.496v-2.627h16.734V91.074z M71.747,90.823H87.98v-2.125H71.747V90.823z"/>
					</g>
					<rect x="71.622" y="89.368" style="fill:#8D271A;" width="16.483" height="1.581"/>
				</g>
				<g>
					<rect x="70.968" y="90.159" style="fill:#E53626;" width="17.79" height="22.512"/>
					<path style="fill:#530E00;" d="M88.884,112.797H70.843V90.033h18.041V112.797z M71.094,112.546h17.539V90.284H71.094V112.546z"
						/>
				</g>
				<g>
					<rect x="72.538" y="92.129" style="fill:#3C3F41;" width="14.651" height="19.001"/>
					<path style="fill:#231F20;" d="M87.189,111.256H72.538c-0.069,0-0.126-0.056-0.126-0.125V92.129
						c0-0.069,0.056-0.125,0.126-0.125h14.651c0.069,0,0.125,0.056,0.125,0.125v19.001C87.314,111.2,87.258,111.256,87.189,111.256z
						 M72.664,111.005h14.4v-18.75h-14.4V111.005z"/>
				</g>
				<g>
					<rect x="73.708" y="93.436" style="fill:#8D271A;" width="12.31" height="15.966"/>
					<path style="fill:#231F20;" d="M86.144,109.527H73.583V93.31h12.561V109.527z M73.834,109.276h12.06V93.561h-12.06V109.276z"/>
				</g>
			</g>
		</g>
		<path style="opacity:0.46;fill:#66696B;" d="M139.024,123.594v-11.33H77.228v0.063c-3.178,0-5.993,4.441-7.725,11.267H139.024z"/>
		<path style="opacity:0.46;fill:#66696B;" d="M68.508,150.565c1.481,9.544,4.828,16.203,8.72,16.203
			c0.216,0,0.429-0.022,0.641-0.063h61.154v-16.14H68.508z"/>
		<path style="opacity:0.36;fill:#3C3F41;" d="M139.024,134.582v-6.242H68.538c-0.312,1.966-0.54,4.06-0.681,6.242H139.024z"/>
	</g>
	<g>
		<g>
			<g>
				<g>
					<path style="fill:#6F7173;" d="M198.553,24.95v148.417h107.511V24.95H198.553z M248.086,103.795h-41.911V67.273
						c0-12.761,9.382-23.106,20.956-23.106c11.574,0,20.956,10.345,20.956,23.106V103.795z M298.986,103.795h-41.911V67.273
						c0-12.761,9.382-23.106,20.956-23.106c11.573,0,20.956,10.345,20.956,23.106V103.795z"/>
					<path style="fill:#006872;" d="M306.19,173.492H198.428V24.825H306.19V173.492z M198.678,173.241h107.26V25.076h-107.26
						V173.241z M299.111,103.92h-42.162V67.273c0-12.81,9.457-23.231,21.081-23.231s21.081,10.422,21.081,23.231V103.92z
						 M257.2,103.669h41.66V67.273c0-12.672-9.344-22.981-20.83-22.981c-11.486,0-20.83,10.309-20.83,22.981V103.669z
						 M248.211,103.92h-42.162V67.273c0-12.81,9.457-23.231,21.081-23.231c11.624,0,21.081,10.422,21.081,23.231V103.92z
						 M206.3,103.669h41.661V67.273c0-12.672-9.344-22.981-20.83-22.981c-11.486,0-20.83,10.309-20.83,22.981V103.669z"/>
				</g>
				<g style="opacity:0.47;">
					<path style="fill:#6F7173;" d="M299.588,84.627c-0.2,0.075-0.401,0.144-0.602,0.218v18.95h-41.911V91.939
						c-3.004-0.026-6.004-0.16-8.989-0.404v12.259h-41.911V78.807c-2.653-1.61-5.203-3.38-7.621-5.314v99.873h107.511V81.93
						C303.937,82.894,301.783,83.803,299.588,84.627z"/>
					<path style="fill:#006872;" d="M306.19,173.492H198.428V73.232l0.204,0.163c2.363,1.89,4.923,3.675,7.608,5.304l0.06,0.037
						v24.933h41.661v-12.27l0.136,0.011c2.961,0.242,5.982,0.377,8.98,0.403l0.124,0.001v11.855h41.66V84.757l0.082-0.03
						c0.088-0.033,0.177-0.064,0.265-0.096c0.112-0.04,0.224-0.08,0.336-0.122l0,0c2.047-0.768,4.163-1.649,6.469-2.694l0.177-0.08
						V173.492z M198.678,173.241h107.26V82.124c-2.243,1.012-4.308,1.87-6.307,2.62c-0.113,0.042-0.226,0.083-0.339,0.123
						c-0.061,0.021-0.121,0.043-0.181,0.065v18.988h-42.162V92.063c-2.917-0.028-5.855-0.16-8.738-0.392v12.249h-42.162V78.877
						c-2.596-1.578-5.073-3.301-7.37-5.124V173.241z"/>
				</g>
				<g style="opacity:0.47;">
					<rect x="198.553" y="24.95" style="fill:#6F7173;" width="107.511" height="19.209"/>
					<path style="fill:#006872;" d="M306.19,44.285H198.428v-19.46H306.19V44.285z M198.678,44.034h107.26V25.076h-107.26V44.034z"
						/>
				</g>
				<g>
					<path style="fill:#8D271A;" d="M227.13,44.167c-11.573,0-20.956,10.345-20.956,23.106v36.522h41.911V67.273
						C248.086,54.512,238.703,44.167,227.13,44.167z M246.408,101.408h-38.557V67.81c0-11.74,8.631-21.256,19.278-21.256
						c10.647,0,19.278,9.517,19.278,21.256V101.408z"/>
					<path style="fill:#45231C;" d="M248.211,103.92h-42.162V67.273c0-12.81,9.457-23.231,21.081-23.231
						c11.624,0,21.081,10.422,21.081,23.231V103.92z M206.3,103.669h41.661V67.273c0-12.672-9.344-22.981-20.83-22.981
						c-11.486,0-20.83,10.309-20.83,22.981V103.669z M246.533,101.534h-38.807V67.81c0-11.79,8.704-21.382,19.404-21.382
						c10.699,0,19.404,9.592,19.404,21.382V101.534z M207.977,101.283h38.306V67.81c0-11.652-8.592-21.131-19.153-21.131
						s-19.153,9.479-19.153,21.131V101.283z"/>
				</g>
				<g>
					<path style="fill:#8D271A;" d="M278.03,44.167c-11.574,0-20.956,10.345-20.956,23.106v36.522h41.911V67.273
						C298.986,54.512,289.604,44.167,278.03,44.167z M297.309,101.408h-38.557V67.81c0-11.74,8.631-21.256,19.278-21.256
						s19.278,9.517,19.278,21.256V101.408z"/>
					<path style="fill:#45231C;" d="M299.111,103.92h-42.162V67.273c0-12.81,9.457-23.231,21.081-23.231
						s21.081,10.422,21.081,23.231V103.92z M257.2,103.669h41.66V67.273c0-12.672-9.344-22.981-20.83-22.981
						c-11.486,0-20.83,10.309-20.83,22.981V103.669z M297.434,101.534h-38.808V67.81c0-11.79,8.704-21.382,19.404-21.382
						c10.699,0,19.404,9.592,19.404,21.382V101.534z M258.877,101.283h38.306V67.81c0-11.652-8.592-21.131-19.153-21.131
						c-10.561,0-19.153,9.479-19.153,21.131V101.283z"/>
				</g>
			</g>
			<g>
				<rect x="198.553" y="111.461" style="fill:#3C3F41;" width="107.511" height="61.905"/>
				<path style="fill:#231F20;" d="M306.064,173.492H198.553c-0.069,0-0.125-0.056-0.125-0.125v-61.905
					c0-0.069,0.056-0.125,0.125-0.125h107.511c0.069,0,0.125,0.056,0.125,0.125v61.905
					C306.19,173.436,306.134,173.492,306.064,173.492z M198.678,173.241h107.26v-61.654h-107.26V173.241z"/>
			</g>
			<rect x="198.553" y="111.461" style="opacity:0.58;fill:#808285;" width="107.511" height="5.889"/>
			<g>
				<rect x="196.549" y="109.11" style="fill:#E53626;" width="111.519" height="4.611"/>
				<path style="fill:#530E00;" d="M308.194,113.846h-111.77v-4.862h111.77V113.846z M196.675,113.595h111.268v-4.36H196.675
					V113.595z"/>
			</g>
			<g>
				<rect x="196.549" y="164.809" style="fill:#E53626;" width="111.519" height="4.611"/>
				<path style="fill:#530E00;" d="M308.194,169.545h-111.77v-4.862h111.77V169.545z M196.675,169.294h111.268v-4.36H196.675
					V169.294z"/>
			</g>
			<g>
				<path style="fill:#3C3F41;" d="M302.204,16.501h-45.133h-9.525h-45.133c-8.996,1.828-8.915,15.195-8.915,15.195v9.386h54.049
					h9.525h54.048v-9.386C311.12,31.696,311.2,18.33,302.204,16.501z"/>
				<path style="fill:#231F20;" d="M311.12,41.207H193.498c-0.069,0-0.125-0.056-0.125-0.125v-9.386c0-0.033-0.008-3.401,1.09-6.949
					c1.459-4.718,4.2-7.612,7.926-8.369c0.008-0.002,0.017-0.002,0.025-0.002h99.791c0.008,0,0.017,0.001,0.025,0.002
					c3.726,0.757,6.467,3.651,7.926,8.369c1.097,3.548,1.09,6.916,1.09,6.95v9.385C311.245,41.151,311.189,41.207,311.12,41.207z
					 M193.623,40.956h117.371v-9.26c0-0.034,0.007-3.369-1.08-6.88c-1.805-5.829-5.193-7.671-7.723-8.189h-99.765
					c-2.53,0.518-5.92,2.362-7.724,8.195c-1.086,3.511-1.079,6.84-1.079,6.874V40.956z"/>
			</g>
			<path style="opacity:0.29;fill:#FFFFFF;" d="M310.936,29.092c-0.065-0.531-0.152-1.12-0.271-1.747H193.952
				c-0.118,0.627-0.206,1.216-0.271,1.747H310.936z"/>
			<rect x="193.498" y="38" style="opacity:0.58;fill:#808285;" width="117.622" height="3.081"/>
			<g>
				<path style="fill:#006872;" d="M276.737,119.76h-15.42h-18.016h-15.42c0,0-2.56,8.585-14.294,9.763v6.152v9.258v6.152
					c11.734,1.178,14.294,9.763,14.294,9.763h15.42h18.016h15.42c0,0,2.56-8.585,14.294-9.763v-6.152v-9.258v-6.152
					C279.297,128.345,276.737,119.76,276.737,119.76z"/>
				<path style="fill:#003A41;" d="M276.736,160.974h-48.949l-0.027-0.089c-0.025-0.085-2.677-8.519-14.186-9.674l-0.113-0.011
					V129.41l0.113-0.011c6.015-0.604,9.551-3.201,11.458-5.274c2.068-2.247,2.721-4.38,2.728-4.401l0.027-0.089h49.042l0.027,0.089
					c0.025,0.085,2.678,8.519,14.187,9.674l0.113,0.011v21.789l-0.113,0.011c-6.015,0.604-9.551,3.201-11.459,5.273
					c-2.067,2.247-2.721,4.379-2.728,4.401l-0.027,0.089H276.736z M227.971,160.723h48.674c0.32-0.92,3.314-8.602,14.259-9.751
					v-21.336c-6.032-0.633-9.589-3.256-11.514-5.352c-1.861-2.026-2.596-3.966-2.745-4.399h-48.674
					c-0.32,0.921-3.314,8.602-14.259,9.751v21.336c6.032,0.633,9.589,3.256,11.514,5.351
					C227.087,158.349,227.823,160.289,227.971,160.723z"/>
			</g>
		</g>
		<path style="opacity:0.58;fill:#808285;" d="M308.777,20.102c-1.291-1.726-3.076-3.099-5.545-3.601h-99.791
			c-2.47,0.502-4.255,1.875-5.546,3.601H308.777z"/>
	</g>
	<g>
		<g>
			<g>
				<g>
					<g>
						<polygon style="fill:#3C3F41;" points="207.858,143.96 205.435,143.96 200.642,143.96 204.463,169.524 205.435,169.524 
							207.858,169.524 208.83,169.524 212.651,143.96 						"/>
						<path style="fill:#231F20;" d="M208.83,169.649h-4.368c-0.062,0-0.115-0.046-0.124-0.107l-3.821-25.564
							c-0.005-0.036,0.005-0.073,0.029-0.1c0.024-0.028,0.059-0.044,0.095-0.044h12.009c0.037,0,0.071,0.016,0.095,0.044
							c0.024,0.028,0.034,0.064,0.029,0.1l-3.821,25.564C208.945,169.603,208.893,169.649,208.83,169.649z M204.571,169.398h4.152
							l3.783-25.313h-11.718L204.571,169.398z"/>
					</g>
					<g>
						<polygon style="fill:#3C3F41;" points="207.858,204.637 205.435,204.637 200.642,204.637 204.463,179.073 205.435,179.073 
							207.858,179.073 208.83,179.073 212.651,204.637 						"/>
						<path style="fill:#231F20;" d="M212.651,204.762h-12.009c-0.036,0-0.071-0.016-0.095-0.044
							c-0.024-0.028-0.034-0.064-0.029-0.1l3.821-25.564c0.009-0.061,0.062-0.107,0.124-0.107h4.368
							c0.062,0,0.115,0.046,0.124,0.107l3.821,25.564c0.005,0.036-0.005,0.073-0.029,0.1
							C212.722,204.746,212.688,204.762,212.651,204.762z M200.788,204.511h11.718l-3.783-25.313h-4.152L200.788,204.511z"/>
					</g>
				</g>
				<g>
					<g>
						<polygon style="fill:#3C3F41;" points="236.985,175.51 236.985,173.087 236.985,168.294 211.421,172.114 211.421,173.087 
							211.421,175.51 211.421,176.482 236.985,180.303 						"/>
						<path style="fill:#231F20;" d="M236.985,180.428c-0.006,0-0.012-0.001-0.019-0.002l-25.564-3.821
							c-0.061-0.009-0.107-0.062-0.107-0.124v-4.368c0-0.062,0.046-0.115,0.107-0.124l25.564-3.821
							c0.037-0.006,0.073,0.005,0.101,0.029c0.028,0.024,0.044,0.059,0.044,0.095v12.009c0,0.036-0.016,0.071-0.044,0.095
							C237.044,180.417,237.015,180.428,236.985,180.428z M211.546,176.374l25.313,3.783v-11.718l-25.313,3.783V176.374z"/>
					</g>
					<g>
						<polygon style="fill:#3C3F41;" points="176.308,175.51 176.308,173.087 176.308,168.294 201.872,172.114 201.872,173.087 
							201.872,175.51 201.872,176.482 176.308,180.303 						"/>
						<path style="fill:#231F20;" d="M176.308,180.428c-0.03,0-0.059-0.011-0.082-0.03c-0.028-0.024-0.044-0.059-0.044-0.095
							v-12.009c0-0.036,0.016-0.071,0.044-0.095c0.027-0.024,0.064-0.034,0.1-0.029l25.564,3.821
							c0.061,0.009,0.107,0.062,0.107,0.124v4.368c0,0.062-0.046,0.115-0.107,0.124l-25.564,3.821
							C176.32,180.428,176.314,180.428,176.308,180.428z M176.433,168.439v11.718l25.313-3.783v-4.152L176.433,168.439z"/>
					</g>
				</g>
			</g>
			<g>
				<g>
					<g>
						<polygon style="fill:#3C3F41;" points="228.956,153.702 227.242,151.989 223.853,148.6 208.478,169.378 209.166,170.066 
							210.879,171.779 211.567,172.466 232.345,157.092 						"/>
						<path style="fill:#231F20;" d="M211.567,172.592c-0.032,0-0.064-0.013-0.089-0.037l-3.089-3.088
							c-0.044-0.044-0.049-0.114-0.012-0.164l15.375-20.778c0.022-0.029,0.055-0.048,0.092-0.05
							c0.034-0.003,0.072,0.011,0.098,0.036l8.492,8.492c0.026,0.026,0.039,0.061,0.036,0.098c-0.003,0.036-0.021,0.07-0.05,0.092
							l-20.778,15.375C211.619,172.584,211.593,172.592,211.567,172.592z M208.643,169.365l2.936,2.936l20.574-15.224l-3.286-3.286
							l0,0l-4.999-5L208.643,169.365z"/>
					</g>
					<g>
						<polygon style="fill:#3C3F41;" points="186.051,196.607 184.337,194.894 180.948,191.505 201.726,176.13 202.414,176.818 
							204.127,178.531 204.815,179.218 189.44,199.997 						"/>
						<path style="fill:#231F20;" d="M189.44,200.122c-0.033,0-0.065-0.013-0.089-0.037l-8.492-8.492
							c-0.026-0.026-0.039-0.062-0.036-0.098c0.003-0.036,0.021-0.07,0.05-0.092l20.778-15.375c0.05-0.037,0.119-0.032,0.163,0.012
							l3.089,3.089c0.044,0.044,0.049,0.113,0.012,0.163l-15.375,20.778c-0.022,0.029-0.055,0.048-0.092,0.05
							C189.446,200.122,189.443,200.122,189.44,200.122z M181.14,191.519l8.286,8.286l15.224-20.574l-2.936-2.936L181.14,191.519z"
							/>
					</g>
				</g>
				<g>
					<g>
						<polygon style="fill:#3C3F41;" points="227.242,196.607 228.956,194.894 232.345,191.505 211.567,176.13 210.879,176.818 
							209.166,178.531 208.478,179.218 223.853,199.997 						"/>
						<path style="fill:#231F20;" d="M223.853,200.122c-0.003,0-0.006,0-0.009,0c-0.036-0.003-0.07-0.021-0.092-0.05l-15.375-20.778
							c-0.037-0.05-0.032-0.12,0.012-0.163l3.089-3.089c0.044-0.044,0.114-0.049,0.163-0.012l20.778,15.375
							c0.029,0.022,0.048,0.055,0.05,0.092c0.003,0.036-0.011,0.072-0.036,0.098l-8.492,8.492
							C223.918,200.109,223.886,200.122,223.853,200.122z M208.643,179.231l15.224,20.574l3.286-3.286l0,0l4.999-4.999
							l-20.574-15.224L208.643,179.231z"/>
					</g>
					<g>
						<polygon style="fill:#3C3F41;" points="184.337,153.702 186.051,151.989 189.44,148.6 204.815,169.378 204.127,170.066 
							202.414,171.779 201.726,172.466 180.948,157.092 						"/>
						<path style="fill:#231F20;" d="M201.726,172.592c-0.026,0-0.052-0.008-0.075-0.024l-20.778-15.375
							c-0.029-0.022-0.048-0.055-0.05-0.092c-0.003-0.037,0.011-0.072,0.036-0.098l8.492-8.492c0.026-0.026,0.06-0.039,0.098-0.036
							c0.036,0.003,0.07,0.021,0.092,0.05l15.375,20.778c0.037,0.05,0.032,0.12-0.012,0.164l-3.089,3.088
							C201.791,172.579,201.758,172.592,201.726,172.592z M181.14,157.077l20.574,15.224l2.936-2.936l-15.224-20.574L181.14,157.077
							z"/>
					</g>
				</g>
			</g>
		</g>
		<g style="opacity:0.59;">
			<g>
				<g>
					<g>
						<path style="fill:#3C3F41;" d="M207.699,148.384c1.421,0.059,2.825,0.297,4.189,0.682l0.763-5.106h-12.009l0.795,5.319
							C203.45,148.611,205.577,148.296,207.699,148.384z"/>
						<path style="fill:#231F20;" d="M201.437,149.404c-0.023,0-0.046-0.006-0.066-0.019c-0.032-0.019-0.053-0.052-0.058-0.088
							l-0.795-5.319c-0.005-0.036,0.005-0.073,0.029-0.1c0.024-0.028,0.059-0.044,0.095-0.044h12.009
							c0.036,0,0.071,0.016,0.095,0.044c0.024,0.028,0.034,0.064,0.029,0.1l-0.763,5.107c-0.005,0.036-0.026,0.067-0.056,0.087
							c-0.031,0.02-0.068,0.025-0.102,0.015c-1.391-0.393-2.79-0.621-4.16-0.677c-2.088-0.087-4.18,0.212-6.217,0.888
							C201.464,149.402,201.45,149.404,201.437,149.404z M200.788,144.085l0.751,5.028c2.022-0.652,4.096-0.939,6.165-0.854l0,0
							c1.345,0.056,2.717,0.274,4.081,0.648l0.721-4.822H200.788z"/>
					</g>
					<g>
						<path style="fill:#3C3F41;" d="M211.197,198.533c-3.173,0.908-6.497,1.096-9.736,0.626l-0.819,5.478h12.009l-0.936-6.264
							C211.542,198.426,211.371,198.483,211.197,198.533z"/>
						<path style="fill:#231F20;" d="M212.651,204.762h-12.009c-0.036,0-0.071-0.016-0.095-0.044
							c-0.024-0.028-0.034-0.064-0.029-0.1l0.818-5.478c0.01-0.069,0.075-0.114,0.142-0.106c3.305,0.48,6.563,0.27,9.684-0.622
							c0.121-0.035,0.241-0.073,0.361-0.111l0.154-0.048c0.035-0.011,0.073-0.006,0.104,0.013c0.031,0.02,0.052,0.052,0.057,0.088
							l0.936,6.264c0.005,0.036-0.005,0.073-0.029,0.1C212.722,204.746,212.687,204.762,212.651,204.762z M200.788,204.511h11.718
							l-0.893-5.975l-0.013,0.004c-0.122,0.039-0.245,0.077-0.368,0.113l0,0c-3.116,0.892-6.367,1.109-9.665,0.647L200.788,204.511z
							 M211.197,198.533h0.002H211.197z"/>
					</g>
				</g>
				<g>
					<g>
						<path style="fill:#3C3F41;" d="M228.785,169.519c0.38,2.078,0.553,4.19,0.507,6.276c-0.025,1.107-0.119,2.217-0.285,3.315
							l7.978,1.192v-12.009L228.785,169.519z"/>
						<path style="fill:#231F20;" d="M236.985,180.428c-0.006,0-0.012-0.001-0.019-0.002l-7.978-1.192
							c-0.033-0.005-0.063-0.022-0.082-0.049c-0.02-0.027-0.028-0.06-0.023-0.093c0.163-1.079,0.258-2.189,0.283-3.299
							c0.046-2.063-0.123-4.166-0.505-6.251c-0.006-0.033,0.002-0.068,0.022-0.096c0.02-0.028,0.05-0.046,0.083-0.051l8.2-1.226
							c0.037-0.006,0.073,0.005,0.101,0.029c0.028,0.024,0.044,0.059,0.044,0.095v12.009c0,0.036-0.016,0.071-0.044,0.095
							C237.044,180.417,237.015,180.428,236.985,180.428z M229.15,179.005l7.71,1.153v-11.718l-7.928,1.185
							c0.368,2.06,0.531,4.136,0.486,6.174C229.393,176.876,229.303,177.954,229.15,179.005z"/>
					</g>
					<g>
						<path style="fill:#3C3F41;" d="M179.571,174.508c-0.14-1.894-0.043-3.811,0.297-5.682l-3.561-0.532v12.009l4.266-0.638
							C180.058,177.992,179.702,176.279,179.571,174.508z"/>
						<path style="fill:#231F20;" d="M176.308,180.428c-0.03,0-0.059-0.011-0.082-0.03c-0.028-0.024-0.044-0.059-0.044-0.095
							v-12.009c0-0.036,0.016-0.071,0.044-0.095c0.027-0.024,0.063-0.034,0.1-0.029l3.56,0.532c0.034,0.005,0.064,0.023,0.083,0.051
							c0.02,0.028,0.028,0.062,0.022,0.096c-0.336,1.851-0.436,3.752-0.296,5.65l0,0c0.124,1.678,0.45,3.356,0.998,5.129
							c0.011,0.035,0.006,0.073-0.014,0.104c-0.019,0.031-0.051,0.052-0.088,0.057l-4.266,0.638
							C176.32,180.428,176.314,180.428,176.308,180.428z M176.434,168.439v11.718l3.978-0.595c-0.528-1.74-0.844-3.393-0.966-5.045
							l0,0c-0.138-1.876-0.046-3.755,0.276-5.587L176.434,168.439z"/>
					</g>
				</g>
			</g>
			<g>
				<g>
					<g>
						<path style="fill:#3C3F41;" d="M225.598,160.451c0.213,0.388,0.414,0.783,0.61,1.182l6.137-4.541l-3.389-3.389l-5.102-5.102
							l-3.723,5.032C222.336,155.564,224.197,157.904,225.598,160.451z"/>
						<path style="fill:#231F20;" d="M226.208,161.758c-0.01,0-0.02-0.001-0.03-0.004c-0.036-0.009-0.067-0.033-0.083-0.067
							c-0.224-0.458-0.417-0.832-0.607-1.177l0,0c-1.403-2.55-3.284-4.896-5.441-6.785c-0.049-0.043-0.057-0.116-0.018-0.169
							l3.723-5.032c0.022-0.029,0.055-0.048,0.092-0.05c0.034-0.003,0.072,0.011,0.098,0.036l8.492,8.492
							c0.026,0.026,0.039,0.061,0.036,0.098c-0.003,0.036-0.021,0.07-0.05,0.092l-6.137,4.541
							C226.261,161.75,226.234,161.758,226.208,161.758z M225.708,160.39c0.173,0.314,0.348,0.651,0.546,1.052l5.899-4.365
							l-8.286-8.286l-3.568,4.822C222.441,155.508,224.31,157.849,225.708,160.39L225.708,160.39z"/>
					</g>
					<g>
						<path style="fill:#3C3F41;" d="M185.257,189.141c-0.129-0.18-0.245-0.368-0.37-0.551l-3.939,2.914l8.492,8.492l3.016-4.076
							C189.635,194.183,187.206,191.858,185.257,189.141z"/>
						<path style="fill:#231F20;" d="M189.44,200.122c-0.033,0-0.065-0.013-0.089-0.037l-8.492-8.492
							c-0.026-0.026-0.039-0.062-0.036-0.098s0.021-0.07,0.05-0.092l3.939-2.914c0.027-0.02,0.062-0.028,0.096-0.023
							c0.034,0.006,0.064,0.025,0.083,0.053c0.05,0.074,0.099,0.148,0.148,0.222c0.072,0.11,0.144,0.22,0.221,0.326c0,0,0,0,0,0
							c1.991,2.774,4.401,5.044,7.163,6.745c0.03,0.018,0.051,0.049,0.057,0.083c0.007,0.035-0.001,0.07-0.022,0.098l-3.016,4.076
							c-0.022,0.029-0.055,0.048-0.092,0.05C189.446,200.122,189.443,200.122,189.44,200.122z M181.14,191.519l8.286,8.286
							l2.848-3.849c-2.742-1.711-5.137-3.978-7.119-6.741v0c-0.079-0.11-0.153-0.223-0.227-0.335
							c-0.024-0.037-0.048-0.074-0.072-0.11L181.14,191.519z"/>
					</g>
				</g>
				<g>
					<g>
						<path style="fill:#3C3F41;" d="M226.177,186.941c-0.646,1.077-1.374,2.105-2.163,3.072c-1.291,1.583-2.774,3.012-4.4,4.255
							l4.239,5.729l8.492-8.492L226.177,186.941z"/>
						<path style="fill:#231F20;" d="M223.853,200.122c-0.003,0-0.006,0-0.009,0c-0.036-0.003-0.07-0.021-0.092-0.05l-4.239-5.729
							c-0.041-0.055-0.03-0.133,0.025-0.174c1.63-1.245,3.103-2.67,4.379-4.235c0.799-0.98,1.523-2.008,2.153-3.057
							c0.018-0.03,0.048-0.052,0.083-0.059c0.035-0.007,0.071,0.001,0.099,0.022l6.168,4.564c0.029,0.022,0.048,0.055,0.05,0.092
							s-0.011,0.072-0.036,0.098l-8.492,8.492C223.918,200.109,223.886,200.122,223.853,200.122z M219.788,194.292l4.079,5.513
							l8.286-8.286l-5.94-4.395c-0.619,1.018-1.325,2.016-2.102,2.969C222.848,191.64,221.395,193.053,219.788,194.292z"/>
					</g>
					<g>
						<path style="fill:#3C3F41;" d="M184.269,159.131c1.531-2.127,3.261-4.135,5.228-5.872c0.673-0.594,1.386-1.171,2.139-1.691
							l-2.197-2.969l-3.389,3.389l-1.713,1.713l-3.389,3.389l3.127,2.314C184.14,159.314,184.204,159.222,184.269,159.131z"/>
						<path style="fill:#231F20;" d="M184.076,159.531c-0.027,0-0.053-0.009-0.075-0.024l-3.127-2.314
							c-0.029-0.022-0.048-0.055-0.05-0.092c-0.003-0.037,0.011-0.072,0.036-0.098l8.492-8.492c0.026-0.026,0.06-0.039,0.098-0.036
							c0.036,0.003,0.07,0.021,0.092,0.05l2.196,2.968c0.02,0.028,0.028,0.062,0.023,0.095c-0.006,0.033-0.025,0.063-0.052,0.082
							c-0.689,0.477-1.385,1.027-2.127,1.682c-1.816,1.603-3.569,3.571-5.21,5.85l0,0c-0.039,0.053-0.076,0.107-0.114,0.162
							l-0.079,0.112c-0.02,0.027-0.049,0.046-0.083,0.051C184.089,159.531,184.082,159.531,184.076,159.531z M181.14,157.077
							l2.907,2.151l0.005-0.006c0.038-0.055,0.077-0.11,0.116-0.165l0,0c1.652-2.295,3.417-4.277,5.247-5.892
							c0.712-0.629,1.382-1.162,2.045-1.626l-2.033-2.748L181.14,157.077z"/>
					</g>
				</g>
			</g>
		</g>
		<g>
			<g>
				<path style="fill:#E53626;" d="M206.646,139.663c-19.128,0-34.635,15.507-34.635,34.635s15.507,34.635,34.635,34.635
					s34.635-15.507,34.635-34.635S225.775,139.663,206.646,139.663z M206.646,203.52c-16.139,0-29.222-13.083-29.222-29.222
					s13.083-29.222,29.222-29.222c16.139,0,29.222,13.083,29.222,29.222S222.785,203.52,206.646,203.52z"/>
				<path style="fill:#530E00;" d="M206.646,209.058c-19.167,0-34.76-15.593-34.76-34.76s15.593-34.76,34.76-34.76
					c19.167,0,34.76,15.594,34.76,34.76S225.813,209.058,206.646,209.058z M206.646,139.789c-19.029,0-34.509,15.481-34.509,34.51
					c0,19.029,15.481,34.509,34.509,34.509c19.029,0,34.51-15.481,34.51-34.509C241.156,155.27,225.675,139.789,206.646,139.789z
					 M206.646,203.645c-16.182,0-29.347-13.165-29.347-29.347s13.165-29.348,29.347-29.348c16.182,0,29.348,13.165,29.348,29.348
					S222.829,203.645,206.646,203.645z M206.646,145.202c-16.044,0-29.096,13.053-29.096,29.097s13.053,29.096,29.096,29.096
					c16.044,0,29.097-13.053,29.097-29.096S222.69,145.202,206.646,145.202z"/>
			</g>
			<path style="fill:#3C3F41;" d="M206.646,142.433c-17.579,0-31.83,14.251-31.83,31.83s14.251,31.83,31.83,31.83
				c17.579,0,31.83-14.251,31.83-31.83S224.226,142.433,206.646,142.433z M206.646,203.52c-16.139,0-29.222-13.083-29.222-29.222
				s13.083-29.222,29.222-29.222c16.139,0,29.222,13.083,29.222,29.222S222.785,203.52,206.646,203.52z"/>
			<g>
				
					<ellipse transform="matrix(0.3827 -0.9239 0.9239 0.3827 -33.4641 298.5137)" style="fill:#3C3F41;" cx="206.646" cy="174.298" rx="13.714" ry="13.714"/>
				<path style="fill:#231F20;" d="M206.646,188.137c-7.631,0-13.839-6.208-13.839-13.839c0-7.631,6.208-13.839,13.839-13.839
					c7.631,0,13.839,6.208,13.839,13.839C220.486,181.929,214.277,188.137,206.646,188.137z M206.646,160.71
					c-7.492,0-13.588,6.096-13.588,13.588c0,7.492,6.096,13.588,13.588,13.588c7.493,0,13.588-6.096,13.588-13.588
					C220.235,166.805,214.139,160.71,206.646,160.71z"/>
			</g>
			<g>
				
					<ellipse transform="matrix(0.9871 -0.1602 0.1602 0.9871 -25.1974 35.3473)" style="fill:#3C3F41;" cx="206.646" cy="173.963" rx="7.714" ry="7.714"/>
				<path style="fill:#231F20;" d="M206.647,181.803c-4.323,0-7.84-3.517-7.84-7.839c0-4.323,3.517-7.84,7.84-7.84
					c4.323,0,7.839,3.517,7.839,7.84C214.486,178.286,210.969,181.803,206.647,181.803z M206.647,166.374
					c-4.184,0-7.589,3.404-7.589,7.589s3.404,7.589,7.589,7.589c4.184,0,7.589-3.404,7.589-7.589S210.831,166.374,206.647,166.374z"
					/>
			</g>
		</g>
		<g>
			<circle style="fill:#009F6B;" cx="206.646" cy="174.298" r="5.493"/>
			<path style="fill:#006872;" d="M206.647,179.916c-3.098,0-5.618-2.52-5.618-5.618c0-3.098,2.52-5.618,5.618-5.618
				c3.098,0,5.618,2.52,5.618,5.618C212.264,177.396,209.744,179.916,206.647,179.916z M206.647,168.931
				c-2.96,0-5.367,2.408-5.367,5.367c0,2.959,2.408,5.367,5.367,5.367c2.959,0,5.367-2.408,5.367-5.367
				C212.014,171.339,209.606,168.931,206.647,168.931z"/>
		</g>
	</g>
	<g>
		<g>
			<g>
				<g>
					<g>
						<polygon style="fill:#3C3F41;" points="287.176,143.96 284.754,143.96 279.96,143.96 283.781,169.524 284.754,169.524 
							287.176,169.524 288.149,169.524 291.969,143.96 						"/>
						<path style="fill:#231F20;" d="M288.149,169.649h-4.368c-0.062,0-0.115-0.046-0.124-0.107l-3.821-25.564
							c-0.005-0.036,0.005-0.073,0.029-0.1c0.024-0.028,0.059-0.044,0.095-0.044h12.009c0.036,0,0.071,0.016,0.095,0.044
							c0.024,0.028,0.034,0.064,0.029,0.1l-3.821,25.564C288.264,169.603,288.211,169.649,288.149,169.649z M283.889,169.398h4.152
							l3.783-25.313h-11.718L283.889,169.398z"/>
					</g>
					<g>
						<polygon style="fill:#3C3F41;" points="287.176,204.637 284.754,204.637 279.96,204.637 283.781,179.073 284.754,179.073 
							287.176,179.073 288.149,179.073 291.969,204.637 						"/>
						<path style="fill:#231F20;" d="M291.969,204.762H279.96c-0.036,0-0.071-0.016-0.095-0.044c-0.024-0.028-0.034-0.064-0.029-0.1
							l3.821-25.564c0.009-0.061,0.062-0.107,0.124-0.107h4.368c0.062,0,0.115,0.046,0.124,0.107l3.821,25.564
							c0.005,0.036-0.005,0.073-0.029,0.1C292.041,204.746,292.006,204.762,291.969,204.762z M280.106,204.511h11.718l-3.783-25.313
							h-4.152L280.106,204.511z"/>
					</g>
				</g>
				<g>
					<g>
						<polygon style="fill:#3C3F41;" points="316.303,175.51 316.303,173.087 316.303,168.294 290.739,172.114 290.739,173.087 
							290.739,175.51 290.739,176.482 316.303,180.303 						"/>
						<path style="fill:#231F20;" d="M316.303,180.428c-0.006,0-0.012-0.001-0.019-0.002l-25.564-3.821
							c-0.061-0.009-0.107-0.062-0.107-0.124v-4.368c0-0.062,0.046-0.115,0.107-0.124l25.564-3.821
							c0.038-0.006,0.073,0.005,0.1,0.029c0.028,0.024,0.044,0.059,0.044,0.095v12.009c0,0.036-0.016,0.071-0.044,0.095
							C316.362,180.417,316.333,180.428,316.303,180.428z M290.865,176.374l25.313,3.783v-11.718l-25.313,3.783V176.374z"/>
					</g>
					<g>
						<polygon style="fill:#3C3F41;" points="255.626,175.51 255.626,173.087 255.626,168.294 281.19,172.114 281.19,173.087 
							281.19,175.51 281.19,176.482 255.626,180.303 						"/>
						<path style="fill:#231F20;" d="M255.626,180.428c-0.03,0-0.059-0.011-0.082-0.03c-0.028-0.024-0.044-0.059-0.044-0.095
							v-12.009c0-0.036,0.016-0.071,0.044-0.095c0.027-0.024,0.063-0.034,0.1-0.029l25.564,3.821
							c0.061,0.009,0.107,0.062,0.107,0.124v4.368c0,0.062-0.046,0.115-0.107,0.124l-25.564,3.821
							C255.639,180.428,255.632,180.428,255.626,180.428z M255.752,168.439v11.718l25.313-3.783v-4.152L255.752,168.439z"/>
					</g>
				</g>
			</g>
			<g>
				<g>
					<g>
						<polygon style="fill:#3C3F41;" points="308.274,153.702 306.561,151.989 303.171,148.6 287.797,169.378 288.484,170.066 
							290.197,171.779 290.885,172.466 311.663,157.092 						"/>
						<path style="fill:#231F20;" d="M290.885,172.592c-0.032,0-0.064-0.013-0.089-0.037l-3.088-3.088
							c-0.044-0.044-0.049-0.114-0.012-0.164l15.375-20.778c0.022-0.029,0.055-0.048,0.092-0.05
							c0.035-0.003,0.072,0.011,0.098,0.036l8.492,8.492c0.026,0.026,0.039,0.061,0.036,0.098c-0.003,0.036-0.021,0.07-0.05,0.092
							l-20.778,15.375C290.937,172.584,290.911,172.592,290.885,172.592z M287.962,169.365l2.935,2.936l20.574-15.224l-8.286-8.286
							L287.962,169.365z"/>
					</g>
					<g>
						<polygon style="fill:#3C3F41;" points="265.369,196.607 263.656,194.894 260.266,191.505 281.044,176.13 281.732,176.818 
							283.445,178.531 284.133,179.218 268.758,199.997 						"/>
						<path style="fill:#231F20;" d="M268.758,200.122c-0.033,0-0.065-0.013-0.089-0.037l-8.492-8.492
							c-0.026-0.026-0.039-0.062-0.036-0.098c0.003-0.036,0.021-0.07,0.05-0.092l20.778-15.375c0.05-0.037,0.119-0.032,0.163,0.012
							l3.088,3.089c0.044,0.044,0.049,0.113,0.012,0.163l-15.375,20.778c-0.022,0.029-0.055,0.048-0.092,0.05
							C268.764,200.122,268.761,200.122,268.758,200.122z M260.458,191.519l8.286,8.286l15.224-20.574l-2.935-2.936L260.458,191.519
							z"/>
					</g>
				</g>
				<g>
					<g>
						<polygon style="fill:#3C3F41;" points="306.561,196.607 308.274,194.894 311.663,191.505 290.885,176.13 290.197,176.818 
							288.484,178.531 287.797,179.218 303.171,199.997 						"/>
						<path style="fill:#231F20;" d="M303.171,200.122c-0.003,0-0.006,0-0.009,0c-0.036-0.003-0.07-0.021-0.092-0.05l-15.375-20.778
							c-0.037-0.05-0.032-0.12,0.012-0.163l3.088-3.089c0.044-0.044,0.114-0.049,0.163-0.012l20.778,15.375
							c0.029,0.022,0.048,0.055,0.05,0.092c0.003,0.036-0.011,0.072-0.036,0.098l-8.492,8.492
							C303.237,200.109,303.204,200.122,303.171,200.122z M287.962,179.231l15.224,20.574l8.286-8.286l-20.574-15.224
							L287.962,179.231z"/>
					</g>
					<g>
						<polygon style="fill:#3C3F41;" points="263.656,153.702 265.369,151.989 268.758,148.6 284.133,169.378 283.445,170.066 
							281.732,171.779 281.044,172.466 260.266,157.092 						"/>
						<path style="fill:#231F20;" d="M281.044,172.592c-0.026,0-0.052-0.008-0.075-0.024l-20.778-15.375
							c-0.029-0.022-0.048-0.055-0.05-0.092c-0.003-0.037,0.011-0.072,0.036-0.098l3.389-3.389l0,0l5.103-5.102
							c0.026-0.026,0.061-0.039,0.098-0.036c0.036,0.003,0.07,0.021,0.092,0.05l15.375,20.778c0.037,0.05,0.032,0.12-0.012,0.164
							l-3.088,3.088C281.109,172.579,281.077,172.592,281.044,172.592z M260.458,157.077l20.574,15.224l2.935-2.936l-15.224-20.574
							L260.458,157.077z"/>
					</g>
				</g>
			</g>
		</g>
		<g style="opacity:0.59;">
			<g>
				<g>
					<g>
						<path style="fill:#3C3F41;" d="M287.017,148.384c1.421,0.059,2.825,0.297,4.189,0.682l0.763-5.106H279.96l0.795,5.319
							C282.768,148.611,284.895,148.296,287.017,148.384z"/>
						<path style="fill:#231F20;" d="M280.755,149.404c-0.023,0-0.046-0.006-0.066-0.019c-0.032-0.019-0.053-0.052-0.058-0.088
							l-0.795-5.319c-0.005-0.036,0.005-0.073,0.029-0.1c0.024-0.028,0.059-0.044,0.095-0.044h12.009
							c0.036,0,0.071,0.016,0.095,0.044c0.024,0.028,0.034,0.064,0.029,0.1l-0.763,5.107c-0.005,0.036-0.026,0.067-0.056,0.087
							c-0.03,0.02-0.068,0.025-0.102,0.015c-1.39-0.393-2.79-0.621-4.16-0.677c-2.089-0.087-4.18,0.212-6.217,0.888
							C280.782,149.402,280.768,149.404,280.755,149.404z M280.106,144.085l0.751,5.028c2.022-0.652,4.095-0.94,6.165-0.854l0,0
							c1.345,0.056,2.717,0.274,4.081,0.648l0.721-4.822H280.106z"/>
					</g>
					<g>
						<path style="fill:#3C3F41;" d="M290.515,198.533c-3.173,0.908-6.497,1.096-9.736,0.626l-0.819,5.478h12.009l-0.936-6.264
							C290.861,198.426,290.689,198.483,290.515,198.533z"/>
						<path style="fill:#231F20;" d="M291.969,204.762H279.96c-0.036,0-0.071-0.016-0.095-0.044c-0.024-0.028-0.034-0.064-0.029-0.1
							l0.819-5.478c0.01-0.069,0.076-0.114,0.142-0.106c3.304,0.48,6.563,0.27,9.684-0.622c0.122-0.035,0.244-0.074,0.366-0.112
							l0.15-0.047c0.035-0.011,0.073-0.006,0.104,0.013c0.031,0.02,0.052,0.052,0.057,0.088l0.936,6.264
							c0.005,0.036-0.005,0.073-0.029,0.1C292.041,204.746,292.006,204.762,291.969,204.762z M280.106,204.511h11.718l-0.893-5.975
							l-0.009,0.003c-0.124,0.039-0.247,0.078-0.372,0.114l0,0c-3.116,0.891-6.367,1.108-9.665,0.647L280.106,204.511z
							 M290.515,198.533h0.002H290.515z"/>
					</g>
				</g>
				<g>
					<g>
						<path style="fill:#3C3F41;" d="M308.103,169.519c0.38,2.078,0.553,4.19,0.507,6.276c-0.025,1.107-0.119,2.217-0.285,3.315
							l7.978,1.192v-12.009L308.103,169.519z"/>
						<path style="fill:#231F20;" d="M316.303,180.428c-0.006,0-0.012-0.001-0.019-0.002l-7.978-1.192
							c-0.033-0.005-0.063-0.022-0.082-0.049c-0.02-0.027-0.028-0.06-0.023-0.093c0.163-1.081,0.259-2.19,0.283-3.299
							c0.046-2.063-0.124-4.166-0.505-6.251c-0.006-0.033,0.002-0.068,0.022-0.096c0.02-0.028,0.05-0.046,0.083-0.051l8.2-1.226
							c0.038-0.006,0.073,0.005,0.1,0.029c0.028,0.024,0.044,0.059,0.044,0.095v12.009c0,0.036-0.016,0.071-0.044,0.095
							C316.362,180.417,316.333,180.428,316.303,180.428z M308.468,179.005l7.71,1.153v-11.718l-7.928,1.185
							c0.368,2.059,0.531,4.136,0.486,6.174C308.711,176.875,308.621,177.953,308.468,179.005z"/>
					</g>
					<g>
						<path style="fill:#3C3F41;" d="M258.889,174.508c-0.14-1.894-0.043-3.811,0.297-5.682l-3.561-0.532v12.009l4.266-0.638
							C259.376,177.992,259.02,176.279,258.889,174.508z"/>
						<path style="fill:#231F20;" d="M255.626,180.428c-0.03,0-0.059-0.011-0.082-0.03c-0.028-0.024-0.044-0.059-0.044-0.095
							v-12.009c0-0.036,0.016-0.071,0.044-0.095c0.027-0.024,0.063-0.034,0.1-0.029l3.561,0.532
							c0.033,0.005,0.064,0.023,0.083,0.051c0.02,0.028,0.028,0.062,0.022,0.095c-0.336,1.852-0.436,3.753-0.295,5.651l0,0
							c0.124,1.678,0.45,3.356,0.998,5.129c0.011,0.035,0.006,0.073-0.014,0.104c-0.019,0.031-0.051,0.052-0.087,0.057l-4.266,0.638
							C255.639,180.428,255.632,180.428,255.626,180.428z M255.752,168.439v11.718l3.978-0.595c-0.528-1.74-0.844-3.393-0.966-5.045
							l0,0c-0.138-1.875-0.046-3.754,0.276-5.587L255.752,168.439z"/>
					</g>
				</g>
			</g>
			<g>
				<g>
					<g>
						<path style="fill:#3C3F41;" d="M304.916,160.451c0.213,0.388,0.414,0.783,0.61,1.182l6.137-4.541l-3.389-3.389l-5.102-5.102
							l-3.723,5.032C301.654,155.564,303.516,157.904,304.916,160.451z"/>
						<path style="fill:#231F20;" d="M305.526,161.758c-0.01,0-0.02-0.001-0.03-0.004c-0.036-0.009-0.067-0.033-0.083-0.067
							c-0.224-0.458-0.417-0.832-0.607-1.177l0,0c-1.403-2.55-3.284-4.896-5.441-6.785c-0.049-0.043-0.057-0.116-0.018-0.169
							l3.723-5.032c0.022-0.029,0.055-0.048,0.092-0.05c0.035-0.003,0.072,0.011,0.098,0.036l8.492,8.492
							c0.026,0.026,0.039,0.061,0.036,0.098c-0.003,0.036-0.021,0.07-0.05,0.092l-6.137,4.541
							C305.579,161.75,305.553,161.758,305.526,161.758z M305.026,160.39c0.173,0.314,0.348,0.652,0.546,1.052l5.899-4.365
							l-8.286-8.286l-3.568,4.822C301.759,155.508,303.628,157.849,305.026,160.39L305.026,160.39z"/>
					</g>
					<g>
						<path style="fill:#3C3F41;" d="M264.575,189.141c-0.129-0.18-0.245-0.368-0.37-0.551l-3.939,2.914l8.492,8.492l3.016-4.076
							C268.954,194.183,266.525,191.858,264.575,189.141z"/>
						<path style="fill:#231F20;" d="M268.758,200.122c-0.033,0-0.065-0.013-0.089-0.037l-8.492-8.492
							c-0.026-0.026-0.039-0.062-0.036-0.098c0.003-0.036,0.021-0.07,0.05-0.092l3.938-2.914c0.028-0.02,0.062-0.028,0.096-0.023
							c0.034,0.006,0.063,0.025,0.083,0.053c0.051,0.075,0.1,0.15,0.15,0.226c0.071,0.109,0.142,0.217,0.218,0.323c0,0,0,0,0,0
							c1.991,2.775,4.401,5.044,7.163,6.745c0.03,0.018,0.051,0.049,0.057,0.083c0.007,0.035-0.001,0.07-0.022,0.098l-3.016,4.076
							c-0.022,0.029-0.055,0.048-0.092,0.05C268.764,200.122,268.761,200.122,268.758,200.122z M260.458,191.519l8.286,8.286
							l2.848-3.849c-2.742-1.711-5.137-3.978-7.119-6.741c-0.078-0.108-0.151-0.22-0.224-0.332c-0.025-0.038-0.05-0.076-0.075-0.114
							L260.458,191.519z"/>
					</g>
				</g>
				<g>
					<g>
						<path style="fill:#3C3F41;" d="M305.495,186.941c-0.646,1.077-1.374,2.105-2.163,3.072c-1.291,1.583-2.774,3.012-4.4,4.255
							l4.239,5.729l8.492-8.492L305.495,186.941z"/>
						<path style="fill:#231F20;" d="M303.171,200.122c-0.003,0-0.006,0-0.009,0c-0.036-0.003-0.07-0.021-0.092-0.05l-4.239-5.729
							c-0.041-0.055-0.03-0.133,0.025-0.174c1.629-1.245,3.103-2.67,4.379-4.235c0.798-0.979,1.523-2.007,2.153-3.057
							c0.018-0.03,0.048-0.052,0.083-0.059c0.036-0.007,0.071,0.001,0.099,0.022l6.168,4.564c0.029,0.022,0.048,0.055,0.05,0.092
							c0.003,0.036-0.011,0.072-0.036,0.098l-8.492,8.492C303.237,200.109,303.204,200.122,303.171,200.122z M299.107,194.292
							l4.079,5.513l8.286-8.286l-5.94-4.395c-0.619,1.019-1.326,2.017-2.102,2.969C302.167,191.64,300.713,193.053,299.107,194.292z
							"/>
					</g>
					<g>
						<path style="fill:#3C3F41;" d="M263.587,159.131c1.531-2.127,3.261-4.135,5.228-5.872c0.673-0.594,1.386-1.171,2.139-1.691
							l-2.197-2.969l-3.389,3.389l-1.713,1.713l-3.389,3.389l3.127,2.314C263.459,159.314,263.522,159.222,263.587,159.131z"/>
						<path style="fill:#231F20;" d="M263.394,159.531c-0.027,0-0.053-0.009-0.075-0.024l-3.127-2.314
							c-0.029-0.022-0.048-0.055-0.05-0.092c-0.003-0.037,0.011-0.072,0.036-0.098l8.492-8.492c0.026-0.026,0.061-0.039,0.098-0.036
							c0.036,0.003,0.07,0.021,0.092,0.05l2.197,2.968c0.02,0.028,0.028,0.062,0.023,0.095c-0.006,0.033-0.025,0.063-0.052,0.082
							c-0.688,0.475-1.384,1.026-2.128,1.682c-1.816,1.604-3.569,3.572-5.209,5.85l0,0c-0.037,0.051-0.073,0.103-0.109,0.155
							l-0.084,0.119c-0.019,0.027-0.049,0.046-0.082,0.051C263.407,159.531,263.4,159.531,263.394,159.531z M260.458,157.077
							l2.907,2.151l0.009-0.013c0.037-0.053,0.074-0.106,0.111-0.158l0,0c1.651-2.294,3.417-4.276,5.247-5.892
							c0.713-0.629,1.383-1.163,2.045-1.626l-2.033-2.748L260.458,157.077z"/>
					</g>
				</g>
			</g>
		</g>
		<g>
			<g>
				<path style="fill:#E53626;" d="M285.965,139.663c-19.128,0-34.635,15.507-34.635,34.635s15.507,34.635,34.635,34.635
					s34.635-15.507,34.635-34.635S305.093,139.663,285.965,139.663z M285.965,203.52c-16.139,0-29.222-13.083-29.222-29.222
					s13.083-29.222,29.222-29.222c16.139,0,29.222,13.083,29.222,29.222S302.103,203.52,285.965,203.52z"/>
				<path style="fill:#530E00;" d="M285.965,209.058c-19.167,0-34.76-15.593-34.76-34.76s15.593-34.76,34.76-34.76
					c19.167,0,34.76,15.594,34.76,34.76S305.132,209.058,285.965,209.058z M285.965,139.789c-19.029,0-34.509,15.481-34.509,34.51
					c0,19.029,15.481,34.509,34.509,34.509s34.509-15.481,34.509-34.509C320.474,155.27,304.993,139.789,285.965,139.789z
					 M285.965,203.645c-16.182,0-29.347-13.165-29.347-29.347s13.165-29.348,29.347-29.348c16.182,0,29.347,13.165,29.347,29.348
					S302.147,203.645,285.965,203.645z M285.965,145.202c-16.044,0-29.096,13.053-29.096,29.097s13.053,29.096,29.096,29.096
					c16.044,0,29.096-13.053,29.096-29.096S302.009,145.202,285.965,145.202z"/>
			</g>
			<path style="fill:#3C3F41;" d="M285.965,142.433c-17.579,0-31.83,14.251-31.83,31.83s14.251,31.83,31.83,31.83
				c17.579,0,31.83-14.251,31.83-31.83S303.544,142.433,285.965,142.433z M285.965,203.52c-16.139,0-29.222-13.083-29.222-29.222
				s13.083-29.222,29.222-29.222c16.139,0,29.222,13.083,29.222,29.222S302.103,203.52,285.965,203.52z"/>
			<g>
				
					<ellipse transform="matrix(0.9871 -0.1602 0.1602 0.9871 -24.227 48.0572)" style="fill:#3C3F41;" cx="285.965" cy="174.298" rx="13.714" ry="13.714"/>
				<path style="fill:#231F20;" d="M285.965,188.137c-7.631,0-13.839-6.208-13.839-13.839c0-7.631,6.208-13.839,13.839-13.839
					c7.631,0,13.839,6.208,13.839,13.839C299.804,181.929,293.596,188.137,285.965,188.137z M285.965,160.71
					c-7.492,0-13.588,6.096-13.588,13.588c0,7.492,6.096,13.588,13.588,13.588c7.493,0,13.588-6.096,13.588-13.588
					C299.553,166.805,293.457,160.71,285.965,160.71z"/>
			</g>
			<g>
				
					<ellipse transform="matrix(0.3827 -0.9239 0.9239 0.3827 15.8096 371.5871)" style="fill:#3C3F41;" cx="285.965" cy="173.963" rx="7.714" ry="7.714"/>
				<path style="fill:#231F20;" d="M285.965,181.803c-4.323,0-7.84-3.517-7.84-7.839c0-4.323,3.517-7.84,7.84-7.84
					c4.323,0,7.84,3.517,7.84,7.84C293.804,178.286,290.288,181.803,285.965,181.803z M285.965,166.374
					c-4.184,0-7.589,3.404-7.589,7.589s3.404,7.589,7.589,7.589c4.184,0,7.589-3.404,7.589-7.589S290.149,166.374,285.965,166.374z"
					/>
			</g>
		</g>
		<g>
			<circle style="fill:#009F6B;" cx="285.965" cy="174.298" r="5.493"/>
			<path style="fill:#006872;" d="M285.965,179.916c-3.098,0-5.618-2.52-5.618-5.618c0-3.098,2.52-5.618,5.618-5.618
				c3.098,0,5.618,2.52,5.618,5.618C291.583,177.396,289.063,179.916,285.965,179.916z M285.965,168.931
				c-2.959,0-5.367,2.408-5.367,5.367c0,2.959,2.408,5.367,5.367,5.367c2.959,0,5.367-2.408,5.367-5.367
				C291.332,171.339,288.924,168.931,285.965,168.931z"/>
		</g>
	</g>
	<g>
		<path style="fill:#006872;" d="M285.965,176.472h-80.313c-1.386,0-2.509-1.123-2.509-2.509s1.123-2.509,2.509-2.509h80.313
			c1.385,0,2.509,1.123,2.509,2.509S287.35,176.472,285.965,176.472z"/>
		<path style="fill:#003A41;" d="M285.965,176.597h-80.313c-1.453,0-2.634-1.182-2.634-2.634c0-1.453,1.182-2.634,2.634-2.634
			h80.313c1.453,0,2.634,1.182,2.634,2.634C288.599,175.416,287.417,176.597,285.965,176.597z M205.651,171.58
			c-1.314,0-2.383,1.069-2.383,2.383c0,1.314,1.069,2.383,2.383,2.383h80.313c1.314,0,2.383-1.069,2.383-2.383
			c0-1.314-1.069-2.383-2.383-2.383H205.651z"/>
	</g>
	<g>
		<path style="fill:#3C3F41;" d="M206.525,176.631c-0.226,0-0.456-0.031-0.684-0.096l-79.41-22.46
			c-1.333-0.377-2.108-1.764-1.731-3.097c0.377-1.333,1.762-2.109,3.097-1.731l79.41,22.46c1.333,0.377,2.108,1.763,1.731,3.097
			C208.625,175.909,207.62,176.631,206.525,176.631z"/>
		<path style="fill:#231F20;" d="M206.525,176.756c-0.242,0-0.484-0.034-0.718-0.1l-79.409-22.46
			c-0.677-0.192-1.239-0.635-1.582-1.25c-0.344-0.614-0.427-1.325-0.235-2.002c0.192-0.677,0.635-1.239,1.249-1.583
			c0.614-0.343,1.326-0.427,2.003-0.235l79.41,22.46c0.677,0.192,1.239,0.635,1.582,1.249c0.344,0.614,0.427,1.325,0.235,2.002
			C208.739,175.967,207.697,176.756,206.525,176.756z M127.109,149.276c-0.402,0-0.799,0.103-1.159,0.304
			c-0.555,0.311-0.956,0.819-1.129,1.432c-0.174,0.613-0.098,1.256,0.213,1.812c0.311,0.556,0.819,0.957,1.432,1.13l79.41,22.46
			c0.213,0.06,0.431,0.091,0.65,0.091c1.061,0,2.003-0.714,2.292-1.735c0.173-0.613,0.098-1.256-0.213-1.812
			c-0.311-0.556-0.819-0.957-1.432-1.13l-79.41-22.46C127.547,149.307,127.328,149.276,127.109,149.276z"/>
	</g>
	<g>
		<g>
			<circle style="fill:#E53626;" cx="206.393" cy="174.263" r="1.118"/>
			<path style="fill:#530E00;" d="M206.393,175.507c-0.686,0-1.244-0.558-1.244-1.244c0-0.686,0.558-1.244,1.244-1.244
				c0.686,0,1.244,0.558,1.244,1.244C207.636,174.948,207.079,175.507,206.393,175.507z M206.393,173.27
				c-0.548,0-0.993,0.445-0.993,0.993c0,0.548,0.445,0.993,0.993,0.993c0.547,0,0.993-0.446,0.993-0.993
				C207.385,173.715,206.94,173.27,206.393,173.27z"/>
		</g>
		<g>
			<circle style="fill:#E53626;" cx="286.299" cy="174.263" r="1.118"/>
			<path style="fill:#530E00;" d="M286.299,175.507c-0.686,0-1.244-0.558-1.244-1.244c0-0.686,0.558-1.244,1.244-1.244
				c0.686,0,1.244,0.558,1.244,1.244C287.543,174.948,286.984,175.507,286.299,175.507z M286.299,173.27
				c-0.547,0-0.993,0.445-0.993,0.993c0,0.548,0.445,0.993,0.993,0.993c0.548,0,0.993-0.446,0.993-0.993
				C287.292,173.715,286.846,173.27,286.299,173.27z"/>
		</g>
	</g>
	<g>
		<g>
			<g>
				<g>
					<g>
						<path style="fill:#006872;" d="M130.015,145.364v-0.031h-6.336h-24.45h-6.336v0.031c-2.623,0-4.75,6.072-4.75,13.561
							c0,7.49,2.126,13.561,4.75,13.561c0.107,0,0.214-0.011,0.32-0.031h6.016h24.45h6.016c0.106,0.02,0.212,0.031,0.32,0.031
							c2.623,0,4.749-6.072,4.749-13.561C134.764,151.435,132.638,145.364,130.015,145.364z"/>
						<path style="fill:#006872;" d="M130.015,172.611c-0.11,0-0.225-0.011-0.343-0.033l-36.459,0.002
							c-0.096,0.02-0.208,0.031-0.32,0.031c-2.688,0-4.875-6.14-4.875-13.686c0-7.429,2.119-13.494,4.749-13.682v-0.036h37.373
							v0.036c2.63,0.188,4.749,6.253,4.749,13.682C134.89,166.471,132.703,172.611,130.015,172.611z M99.229,172.329h30.466
							c0.125,0.021,0.225,0.031,0.32,0.031c2.55,0,4.624-6.027,4.624-13.436s-2.074-13.436-4.624-13.436h-0.125v-0.031H93.019v0.031
							h-0.126c-2.55,0-4.624,6.027-4.624,13.436s2.074,13.436,4.624,13.436c0.096,0,0.193-0.01,0.297-0.029L99.229,172.329z"/>
					</g>
					<path style="fill:#3C3F41;" d="M134.41,153.797c-0.049-0.339-0.1-0.673-0.158-0.998H88.656
						c-0.058,0.325-0.109,0.659-0.158,0.998H134.41z"/>
					<g>
						<g>
							<path style="fill:#E53626;" d="M88.144,158.925c0-7.49,2.126-13.561,4.75-13.561v-0.031h-3.597v0.031
								c-2.623,0-4.75,6.072-4.75,13.561c0,7.49,2.127,13.561,4.75,13.561c0.107,0,0.214-0.011,0.32-0.031h2.97
								C90.106,172.002,88.144,166.119,88.144,158.925z"/>
							<path style="fill:#530E00;" d="M89.297,172.611c-2.688,0-4.875-6.14-4.875-13.686c0-7.429,2.119-13.494,4.749-13.682v-0.036
								h3.847v0.282h-0.126c-2.55,0-4.624,6.027-4.624,13.436c0,7.074,1.906,12.962,4.34,13.406l-0.023,0.249h-2.97
								C89.522,172.6,89.407,172.611,89.297,172.611z M89.297,145.489c-2.55,0-4.624,6.027-4.624,13.436s2.074,13.436,4.624,13.436
								c0.094,0,0.194-0.01,0.296-0.029l2.312-0.002c-2.226-1.282-3.886-6.847-3.886-13.405c0-6.711,1.729-12.309,4.002-13.467
								h-2.599v0.031H89.297z"/>
						</g>
						<g>
							<g>
								<path style="fill:#E53626;" d="M130.015,145.364v-0.031h-3.597v0.031c2.623,0,4.749,6.072,4.749,13.561
									c0,7.195-1.962,13.077-4.442,13.53h2.97c0.106,0.02,0.212,0.031,0.32,0.031c2.623,0,4.749-6.072,4.749-13.561
									C134.764,151.435,132.638,145.364,130.015,145.364z"/>
								<path style="fill:#530E00;" d="M130.015,172.611c-0.11,0-0.225-0.011-0.343-0.033l-2.946,0.002l-0.023-0.249
									c2.433-0.444,4.339-6.333,4.339-13.406c0-7.408-2.074-13.436-4.624-13.436h-0.125v-0.282h3.848v0.036
									c2.63,0.188,4.749,6.253,4.749,13.682C134.89,166.471,132.703,172.611,130.015,172.611z M127.408,172.329h2.287
									c0.125,0.021,0.225,0.031,0.32,0.031c2.55,0,4.624-6.027,4.624-13.436s-2.074-13.436-4.624-13.436h-0.125v-0.031h-2.599
									c2.273,1.158,4.002,6.756,4.002,13.467C131.293,165.482,129.633,171.046,127.408,172.329z"/>
							</g>
						</g>
					</g>
					<path style="opacity:0.32;fill:#535658;" d="M85.102,165.286c0.798,4.283,2.377,7.2,4.195,7.2c0.107,0,0.214-0.011,0.32-0.031
						h36.482c0.106,0.02,0.212,0.031,0.319,0.031c1.818,0,3.396-2.917,4.195-7.2H85.102z"/>
				</g>
			</g>
			<g>
				<g>
					<g>
						<rect x="106.837" y="144.627" style="fill:#6D190C;" width="2.59" height="28.079"/>
						<path style="fill:#45231C;" d="M109.551,172.831h-2.84v-28.33h2.84V172.831z M106.962,172.581h2.339v-27.828h-2.339V172.581z"
							/>
					</g>
				</g>
				<g>
					<circle style="fill:#009F6B;" cx="108.131" cy="146.597" r="0.638"/>
					<circle style="fill:#009F6B;" cx="108.131" cy="152.573" r="0.638"/>
					<circle style="fill:#009F6B;" cx="108.131" cy="158.549" r="0.638"/>
					<circle style="fill:#009F6B;" cx="108.131" cy="164.526" r="0.638"/>
					<path style="fill:#009F6B;" d="M108.77,170.502c0,0.353-0.286,0.638-0.638,0.638s-0.638-0.286-0.638-0.638
						c0-0.352,0.286-0.638,0.638-0.638S108.77,170.149,108.77,170.502z"/>
				</g>
				<g>
					<g>
						<rect x="109.885" y="144.627" style="fill:#6D190C;" width="2.589" height="28.079"/>
						<path style="fill:#45231C;" d="M112.6,172.831h-2.84v-28.33h2.84V172.831z M110.011,172.581h2.339v-27.828h-2.339V172.581z"/>
					</g>
				</g>
				<g>
					<circle style="fill:#009F6B;" cx="111.18" cy="146.597" r="0.638"/>
					<circle style="fill:#009F6B;" cx="111.18" cy="152.573" r="0.638"/>
					<circle style="fill:#009F6B;" cx="111.18" cy="158.549" r="0.638"/>
					<circle style="fill:#009F6B;" cx="111.18" cy="164.526" r="0.638"/>
					<path style="fill:#009F6B;" d="M111.818,170.502c0,0.353-0.286,0.638-0.638,0.638s-0.638-0.286-0.638-0.638
						c0-0.352,0.286-0.638,0.638-0.638S111.818,170.149,111.818,170.502z"/>
				</g>
			</g>
		</g>
	</g>
</g>
</svg>
